<?xml version="1.0" encoding="utf-8"?>
<!-- Generator: Adobe Illustrator 27.1.0, SVG Export Plug-In . SVG Version: 6.00 Build 0)  -->
<svg version="1.0" id="Capa_1" xmlns="http://www.w3.org/2000/svg" xmlns:xlink="http://www.w3.org/1999/xlink" x="0px" y="0px"
	 viewBox="0 0 16 16" style="enable-background:new 0 0 16 16;" xml:space="preserve">
<style type="text/css">
	.st0{fill:#38816F;}
	.st1{fill:#B3B3B3;}
	.st2{fill:#EE5D44;}
	.st3{fill:#262626;}
	.st4{fill:#171E37;}
	.st5{fill:#84363D;}
	.st6{fill:#85373E;}
	.st7{fill:#52463C;}
	.st8{fill:#F39F91;}
	.st9{fill:#AB7D42;}
	.st10{fill:#FAB255;}
	.st11{fill:#493E32;}
	.st12{fill:#A67C46;}
	.st13{fill:#F4D289;}
</style>
<g>
	<path class="st0" d="M12.42,10.97H9.69c-0.3,0-0.54-0.24-0.54-0.54V9.43c0-0.3,0.24-0.54,0.54-0.54h2.73c0.3,0,0.54,0.24,0.54,0.54
		v1.01C12.96,10.73,12.72,10.97,12.42,10.97z"/>
	<path class="st0" d="M8.61,7.38H7.43C7.08,7.38,6.8,7.1,6.8,6.75V5.57c0-0.35,0.28-0.63,0.63-0.63h1.18c0.35,0,0.63,0.28,0.63,0.63
		v1.18C9.24,7.1,8.96,7.38,8.61,7.38z"/>
	<path class="st1" d="M1.98,13.06c0.04,0.22,0.05,0.43,0,0.65C1.98,13.49,1.98,13.27,1.98,13.06z"/>
	<g>
		<g>
			<path class="st2" d="M9.15,1.62C9.03,1.47,8.89,1.35,8.74,1.24c-0.12,0.03-0.2,0.15-0.35,0.15c0.11-0.07,0.2-0.14,0.3-0.2
				C8.51,1.06,8.34,0.92,8.13,0.86C7.93,1.01,7.72,1.13,7.49,1.2c0.17-0.14,0.35-0.28,0.52-0.43C7.98,0.73,7.95,0.75,7.92,0.77
				C7.85,0.82,7.78,0.86,7.71,0.91C6.92,1.48,6.24,2.18,5.48,2.79C5,3.18,4.53,3.6,4.05,4C3.4,4.55,2.75,5.1,2.1,5.65
				c0.1,0,0.15-0.1,0.26-0.09c-0.1,0.06-0.19,0.12-0.29,0.18C1.95,5.8,1.86,5.91,1.72,5.92C1.57,6.05,1.39,6.13,1.24,6.27
				C1.11,6.39,0.98,6.52,0.96,6.71c0.29-0.12,0.55-0.3,0.83-0.45c0.55-0.31,1.09-0.63,1.64-0.94c0.23-0.14,0.47-0.27,0.7-0.4
				c0.1-0.07,0.2-0.13,0.31-0.17C4.35,4.83,4.25,4.89,4.15,4.94C3.65,5.26,3.16,5.58,2.66,5.9C2.1,6.26,1.55,6.62,0.99,6.98
				C1.01,7.06,1.04,7.14,1.1,7.21C1.64,6.9,2.18,6.6,2.72,6.29C2.72,6.3,2.73,6.31,2.74,6.33C2.23,6.67,1.73,7.02,1.22,7.37
				C1.24,7.39,1.25,7.4,1.27,7.42c0.39,0.35,0.62,0.3,0.92-0.1c0.25-0.34,0.55-0.63,0.89-0.88c0.65-0.47,1.26-0.97,1.86-1.5
				c0.51-0.46,0.99-0.96,1.51-1.41C6.82,3.21,7.21,2.91,7.59,2.6c0.13-0.13,0.29-0.2,0.44-0.29C8.41,2.08,8.76,1.82,9.15,1.62z"/>
			<path class="st2" d="M15.13,6.86c-0.05-0.27-0.24-0.43-0.46-0.56c-0.17,0.1-0.34,0.2-0.5,0.3c0.08-0.17,0.22-0.28,0.33-0.42
				c-0.04-0.11-0.17-0.13-0.24-0.21C14.18,6.02,14.1,6.06,14,6.11c0.04-0.11,0.13-0.13,0.18-0.2c-0.05-0.09-0.15-0.14-0.23-0.2
				c-0.08,0.06-0.16,0.11-0.3,0.16c0.1-0.09,0.16-0.16,0.23-0.22c-0.26-0.21-0.51-0.42-0.77-0.63c-0.21-0.18-0.42-0.36-0.63-0.55
				c-0.15-0.13-0.29-0.28-0.48-0.38c-0.12,0.11-0.27,0.18-0.44,0.22c0.11-0.11,0.21-0.23,0.32-0.34c-0.31-0.27-0.62-0.54-0.94-0.79
				c-0.15,0.08-0.3,0.16-0.48,0.26c0.11-0.17,0.22-0.28,0.34-0.38c-0.07-0.09-0.16-0.16-0.26-0.2C10.4,2.93,10.28,3,10.15,3.07
				c0.09-0.12,0.15-0.24,0.27-0.33C10.15,2.52,9.9,2.28,9.63,2.07C9.5,2.15,9.38,2.24,9.22,2.26c0.1-0.11,0.19-0.21,0.29-0.32
				c-0.1-0.09-0.19-0.19-0.29-0.28C8.93,1.83,8.65,2,8.37,2.17c-0.1,0.06-0.2,0.11-0.3,0.17C7.98,2.39,7.89,2.45,7.8,2.51
				c0.19-0.02,0.37,0.01,0.55,0.05C8.5,2.47,8.65,2.39,8.8,2.3C8.7,2.42,8.65,2.57,8.5,2.63C8.83,2.81,9.11,3.04,9.38,3.3
				C9.46,3.22,9.56,3.17,9.7,3.11C9.61,3.23,9.56,3.33,9.45,3.37c0.09,0.09,0.19,0.17,0.28,0.26c0.1-0.09,0.22-0.15,0.36-0.19
				c-0.07,0.11-0.15,0.21-0.26,0.29c0.27,0.32,0.58,0.6,0.91,0.87c0.15-0.11,0.32-0.19,0.49-0.27C11.11,4.45,11,4.58,10.88,4.71
				c0.33,0.31,0.68,0.6,1.03,0.89c0.07-0.04,0.14-0.08,0.21-0.12c0.01,0.01,0.01,0.01,0.02,0.02c-0.06,0.05-0.11,0.11-0.17,0.16
				c0.25,0.2,0.47,0.43,0.73,0.62c0.1-0.01,0.15-0.11,0.27-0.12c-0.07,0.08-0.12,0.15-0.21,0.18c0.09,0.07,0.16,0.16,0.26,0.2
				c0.07-0.04,0.14-0.08,0.21-0.12C13.2,6.5,13.16,6.58,13.06,6.6c0.09,0.07,0.18,0.14,0.26,0.2c0.16-0.09,0.32-0.18,0.48-0.27
				c-0.09,0.16-0.21,0.29-0.33,0.41c0.2,0.17,0.39,0.34,0.59,0.51c0.19,0.17,0.49,0.2,0.62,0.08c0.18-0.17,0.31-0.38,0.45-0.57
				C15.15,6.93,15.14,6.89,15.13,6.86z"/>
		</g>
	</g>
	<path class="st3" d="M8.47,14.34c-0.01,0.01-0.02,0.01-0.03,0.01c0-1.43,0-2.87,0-4.3c0-0.04-0.01-0.08,0.03-0.11
		C8.47,11.41,8.47,12.88,8.47,14.34z"/>
	<path class="st4" d="M14.86,6.04c-0.21-0.19-0.44-0.35-0.64-0.54c-0.22-0.2-0.46-0.36-0.66-0.58c-0.03-0.01-0.03-0.04-0.03-0.06
		c0-0.78,0-1.57,0.01-2.35c-0.02-0.29,0.04-0.57,0.03-0.86c-0.01-0.13-0.04-0.25-0.07-0.38c-0.05-0.16-0.17-0.25-0.33-0.26
		c-0.24-0.03-0.48-0.04-0.72-0.06c-0.18,0-0.36,0-0.53,0c-0.15-0.01-0.29,0.02-0.43,0.06c-0.26,0.08-0.37,0.26-0.39,0.56
		c-0.01,0.15,0.05,0.29,0.03,0.43c0.06,0.12,0.02,0.26,0.02,0.38c0.01,0.15,0,0.31,0,0.46c0,0,0,0.01-0.01,0.01
		c-0.01,0-0.01,0-0.02,0C11,2.85,10.95,2.74,10.87,2.67C10.52,2.4,10.19,2.1,9.85,1.82C9.4,1.45,8.97,1.05,8.51,0.7
		C8.39,0.61,8.25,0.59,8.14,0.51c-0.06,0-0.11,0-0.17,0c-0.21,0.08-0.4,0.17-0.57,0.32C7.15,1.06,6.88,1.28,6.61,1.5
		c-0.35,0.29-0.7,0.58-1.04,0.87C5.29,2.6,5.02,2.84,4.74,3.08C4.47,3.31,4.19,3.53,3.91,3.77C3.63,4,3.35,4.25,3.07,4.48
		c-0.4,0.34-0.81,0.67-1.21,1.01c-0.35,0.3-0.71,0.59-1.07,0.88c-0.32,0.25-0.41,0.4-0.22,0.76c0.15,0.28,0.37,0.52,0.61,0.74
		C1.33,8,1.51,8.08,1.72,8C1.8,7.97,1.88,7.92,1.99,7.87c-0.08,0.54-0.1,1.05-0.1,1.57c0,0.19,0,0.37,0,0.56
		c0,1.02,0.08,2.04,0.1,3.05c0.04,0.22,0.05,0.43,0,0.65c-0.03,0.32-0.04,0.65-0.03,0.97c0,0.36,0.24,0.68,0.57,0.72
		c0.45,0.06,0.91,0.08,1.37,0.09c0.31,0,0.61,0,0.92,0c0.15,0,0.3-0.01,0.45-0.02c0.35-0.02,0.71-0.02,1.06-0.03
		c0.4-0.02,0.81-0.01,1.22-0.01c0.29,0,0.57,0,0.86,0c0.56,0.02,1.13-0.02,1.69,0.03c0.32,0.03,0.65,0,0.98,0c0.3,0,0.61,0,0.91,0
		c0.3,0.03,0.6-0.04,0.9-0.03c0.15,0.01,0.31-0.01,0.46-0.03c0.12-0.02,0.25-0.05,0.36-0.12c0.3-0.18,0.37-0.47,0.39-0.79
		c0.02-0.4-0.05-0.8-0.05-1.2c0.05-0.04,0.02-0.1,0.02-0.15c0-1.68,0-3.36,0-5.04c0-0.05-0.03-0.12,0.03-0.16
		c0.21,0.12,0.42,0.08,0.61-0.04c0.17-0.1,0.29-0.26,0.41-0.42c0.14-0.18,0.24-0.38,0.41-0.53c0-0.09,0-0.18,0-0.26
		C15.38,6.39,15.09,6.24,14.86,6.04z M11.47,1.72c-0.08-0.12,0.04-0.23,0.01-0.35c0-0.01,0.01-0.02,0.01-0.03
		c-0.03-0.2,0.09-0.21,0.23-0.19C11.81,1.1,11.91,1.13,12,1.13c0.16,0.03,0.31,0.04,0.47,0c0.15-0.01,0.3-0.01,0.45,0.05
		c0.15,0.03,0.25,0.12,0.26,0.27c0.01,0.11,0,0.21,0,0.32c0,0.03,0,0.06,0,0.09C13.16,2,13.15,2.14,13.14,2.27c0,0.06,0,0.12,0,0.18
		c0,0.13,0,0.26,0,0.38c0,0.03,0.01,0.06,0.01,0.09c0.05,0.17,0.01,0.35,0.02,0.52c0.01,0.1,0,0.2,0,0.31
		c-0.01,0.02-0.02,0.04-0.03,0.06c0.06,0.1,0.02,0.22,0.03,0.33c0.01,0.13,0,0.26,0,0.39c0,0.02,0,0.06-0.03,0.06
		c-0.04,0-0.03-0.04-0.03-0.07c-0.18-0.04-0.28-0.2-0.42-0.3c-0.04-0.03-0.08-0.07-0.11-0.11c-0.08-0.02-0.12-0.09-0.17-0.14
		c-0.15-0.12-0.32-0.22-0.42-0.38c-0.09,0.03-0.1-0.06-0.15-0.09c-0.09-0.07-0.17-0.13-0.26-0.2c-0.07-0.04-0.1-0.1-0.08-0.18
		c0.01-0.12-0.08-0.23,0-0.35c-0.04-0.01-0.03-0.04-0.02-0.07c0-0.1-0.01-0.19-0.01-0.29c-0.04-0.17-0.05-0.34,0-0.51
		c0-0.01,0-0.01,0-0.02C11.41,1.82,11.44,1.77,11.47,1.72z M8.06,15c0.03,0.22-0.13,0.13-0.23,0.14c-0.21-0.01-0.42,0.04-0.62-0.02
		c-0.11,0.05-0.23,0.02-0.35,0.02c-0.02,0-0.04,0-0.06,0c-0.18,0-0.36,0-0.53,0c-0.04,0-0.08,0-0.11,0c-0.02,0-0.04,0-0.06,0
		c-0.19,0-0.37,0-0.56,0c-0.11-0.03-0.23,0.02-0.35,0c-0.22,0.02-0.22,0.02-0.28-0.21c-0.03-0.12-0.04-0.23,0.01-0.34
		c-0.05-0.03-0.02-0.08-0.03-0.12c0.01,0,0.02,0,0.02-0.01c0-0.02,0.01-0.03,0.01-0.05c0-0.34,0-0.69,0-1.03c0-0.05,0-0.1,0-0.15
		c0-0.11,0-0.22,0-0.33c0-0.06,0-0.11,0-0.17c0-0.11,0-0.22,0-0.32c-0.01,0-0.02,0-0.02-0.01c0,0,0,0,0,0c0-0.07,0-0.13,0-0.2
		c0-0.24,0-0.47,0-0.71c0-0.01,0-0.02,0-0.03c0-0.07,0-0.14,0-0.2c-0.01-0.14-0.02-0.28-0.03-0.41c0-0.01,0-0.02,0-0.03
		c-0.03-0.23-0.07-0.45-0.06-0.68c0-0.02,0-0.04,0-0.05c0-0.14-0.04-0.28,0.02-0.41C4.78,9.65,4.81,9.6,4.81,9.56
		C4.8,9.48,4.83,9.4,4.85,9.32c0.07-0.25,0.14-0.3,0.4-0.32c0.18-0.01,0.35,0,0.53,0c0.14,0,0.27,0,0.41,0c0.16,0,0.32,0,0.48,0
		c0.09,0,0.17,0,0.26,0C7.2,9,7.49,9,7.77,9.06c0.04,0.01,0.08,0.02,0.12,0.05C7.92,9.15,7.95,9.18,7.98,9.2
		c0.09,0.08,0.07,0.2,0.1,0.3c0,0.07,0,0.13,0,0.2c0,0.24,0,0.47,0,0.71c0,0.07,0,0.14,0,0.2c0,0.12,0,0.24,0,0.35
		c0,0.05,0,0.1,0,0.14c0,0.11,0,0.22,0,0.33c0,0.06,0,0.11,0,0.17c0,0.34,0,0.69,0,1.03c0,0.06,0,0.12,0,0.17c0,0.23,0,0.45,0,0.68
		c0,0.07,0,0.13,0,0.2c0,0.27,0.02,0.53,0,0.8c-0.01,0.12,0.02,0.24,0,0.37C8.09,14.91,8.11,14.96,8.06,15z M13.73,14.46
		c0.01,0.21-0.03,0.41-0.14,0.59c-0.09,0.14-0.25,0.15-0.4,0.15c-0.22-0.01-0.44,0.01-0.66-0.03c-0.1,0.03-0.19-0.04-0.29-0.03
		c-0.2,0-0.39,0-0.59,0c-0.11,0-0.21,0-0.32,0c-0.01,0-0.02,0-0.04,0c-0.19,0-0.37,0-0.56,0c-0.05,0-0.1,0-0.14,0
		c-0.02,0-0.04,0-0.06,0c-0.18,0-0.35,0-0.53,0c-0.05,0-0.1,0-0.15,0c-0.02,0-0.04,0-0.06,0c-0.18,0-0.35,0-0.53,0
		c-0.1,0-0.19,0-0.29,0c-0.01,0-0.02,0-0.03,0c-0.17-0.01-0.33,0.04-0.5-0.03c0-0.01,0-0.02,0-0.03c0-0.07,0-0.14,0-0.21
		c0-0.13,0-0.25,0-0.38c0-0.05,0-0.1,0-0.15c0-1.43,0-2.87,0-4.3c0-0.04-0.01-0.08,0.03-0.11c-0.02-0.05-0.06-0.1,0-0.15
		c0-0.19,0.03-0.37-0.02-0.56C8.43,9.09,8.34,8.99,8.24,8.89c-0.17-0.06-0.35-0.1-0.53-0.13c-0.17,0-0.33,0-0.5,0
		c-0.4,0.03-0.8,0.07-1.2,0.1C5.84,8.91,5.67,8.87,5.5,8.88c-0.04,0-0.08,0-0.12,0c-0.06,0-0.11,0-0.17,0c-0.02,0-0.04,0-0.06,0
		C4.96,8.94,4.77,9,4.66,9.19c0,0.02,0,0.05-0.03,0.06C4.62,9.28,4.6,9.32,4.59,9.35C4.58,9.51,4.52,9.67,4.53,9.83
		c0,0.01,0.01,0.02,0.01,0.03c0,0.02-0.01,0.04-0.01,0.05c0,0.14,0,0.28,0,0.41c0,0.02,0,0.04,0,0.06c0,0.13,0,0.26,0,0.39
		c0,0.04,0,0.07,0,0.11c0,0.14,0,0.28,0,0.41c0,0.04,0,0.08,0,0.11c0,0.14,0,0.27,0,0.41c0,0.05,0,0.09,0,0.14c0,0.14,0,0.28,0,0.41
		c0,0.02,0,0.04,0,0.06c0,0.14,0,0.28,0,0.42c0,0.34,0,0.69,0,1.03c0,0.03,0,0.05,0,0.08c0,0.13,0,0.26,0,0.38c0,0.12,0,0.23,0,0.35
		c0,0.05,0,0.1,0,0.15c0,0.09,0,0.17,0,0.26c0,0.01,0,0.02,0,0.03c0,0,0,0,0,0c-0.16,0-0.33,0-0.49,0c-0.07,0-0.14,0-0.21,0
		c-0.2,0.02-0.41,0.04-0.61,0.06c-0.04,0-0.08,0-0.13,0c-0.16-0.01-0.32,0.04-0.47-0.05c-0.05-0.01-0.09-0.02-0.12-0.06
		c-0.1-0.09-0.14-0.2-0.14-0.33c0-0.19,0-0.39,0.01-0.58c0-0.05,0-0.09,0-0.14c0-0.1,0-0.2,0-0.3c0-0.05,0-0.1,0-0.15
		c0-0.1,0-0.2,0-0.3c0-0.08,0-0.16,0-0.24c0-0.11,0-0.21,0-0.32c0-0.07,0-0.14,0-0.21c0-0.11,0-0.21,0-0.32c0-0.07,0-0.14,0-0.21
		c0-0.1,0-0.2,0-0.3c0-0.05,0-0.11,0-0.16c0-0.1,0-0.2,0-0.3c0-0.06,0-0.12,0-0.18c0-0.11,0-0.21,0-0.32c0-0.08,0-0.16,0-0.24
		c0-0.22,0-0.43,0-0.65c0-0.09,0-0.17,0-0.26c0-0.1,0-0.2,0-0.3c0-0.07,0-0.13,0-0.2c0-0.15,0-0.3,0-0.44
		c-0.01-0.06,0-0.12-0.03-0.17c0-0.02,0-0.04,0-0.06c0-0.09,0-0.19-0.01-0.28C2.28,8.06,2.31,7.99,2.31,7.92
		C2.29,7.74,2.32,7.58,2.48,7.48c0.2-0.25,0.44-0.44,0.7-0.62c0.26-0.26,0.55-0.48,0.83-0.72c0.24-0.2,0.48-0.41,0.72-0.62
		c0.31-0.26,0.62-0.53,0.93-0.79c0.31-0.27,0.62-0.53,0.93-0.8c0.24-0.2,0.47-0.4,0.71-0.61c0.14-0.12,0.28-0.25,0.42-0.38
		c0.07-0.06,0.14-0.11,0.24-0.1c0.07-0.01,0.12,0.02,0.17,0.05c0.11,0.01,0.2,0.05,0.26,0.15c0.03,0.01,0.05,0.03,0.06,0.06
		c0.07,0.06,0.13,0.12,0.2,0.18C8.68,3.3,8.71,3.33,8.74,3.36c0.09,0.03,0.15,0.1,0.21,0.18c0.08,0.04,0.15,0.09,0.2,0.17
		c0.09,0.03,0.15,0.1,0.21,0.18C9.41,3.92,9.47,3.94,9.51,4c0.07,0.06,0.14,0.12,0.2,0.18C9.73,4.2,9.75,4.22,9.76,4.23
		c0.16,0.09,0.28,0.25,0.42,0.36c0.05,0.04,0.1,0.08,0.15,0.12c0.08,0.06,0.15,0.13,0.23,0.19c0.06,0.05,0.12,0.1,0.18,0.15
		c0.15,0.13,0.3,0.25,0.44,0.38c0.06,0.05,0.12,0.1,0.17,0.15c0.09,0.05,0.15,0.13,0.21,0.2c0.06,0,0.09,0.05,0.12,0.09
		c0.08,0.05,0.16,0.09,0.21,0.18c0.04,0.03,0.08,0.06,0.12,0.09c0.07,0.06,0.14,0.12,0.21,0.18c0.05,0.05,0.11,0.09,0.16,0.14
		c0.07,0.06,0.14,0.12,0.21,0.18c0.05,0.04,0.1,0.09,0.15,0.13c0.08,0.05,0.15,0.11,0.2,0.19c0.07,0.04,0.14,0.07,0.18,0.15
		c0.08,0.05,0.16,0.09,0.21,0.18c0.03,0.03,0.06,0.06,0.09,0.09c0.07,0.07,0.14,0.13,0.2,0.2c0.03,0.01,0.03,0.04,0.04,0.07
		c0,0.02-0.01,0.04-0.01,0.05c0,0.19-0.01,0.39,0,0.58c0,0.11-0.02,0.23,0.03,0.34c0.01,0.02,0,0.03-0.02,0.03
		c0,0.05-0.01,0.09-0.01,0.14c0,0.1,0,0.2,0,0.3c0,0.02,0,0.04,0,0.06c0,0.1,0,0.2,0,0.3c0,0.06,0,0.11,0,0.17c0,0.1,0,0.2,0,0.3
		c0,0.03,0.01,0.06,0.01,0.08c0,0.01-0.01,0.02-0.01,0.03c0,0.2,0,0.4,0,0.6c0,0.1-0.03,0.21,0.02,0.31c0-0.1,0-0.2,0-0.3
		c0,0.1,0,0.2,0,0.3c0.01,0.02-0.01,0.03-0.02,0.03c0,0.04-0.01,0.08-0.01,0.11c0,0.11,0,0.22,0,0.33c0,0.07,0,0.14,0,0.2
		c0.01,0.1,0.02,0.2,0.03,0.3c0,0.07,0,0.13,0,0.2c-0.01,0.1,0.05,0.2,0.03,0.3c0,0.06,0,0.12,0,0.18c0.02,0.1,0.05,0.19,0.03,0.3
		c0,0.04,0,0.08,0,0.11c-0.01,0.1,0.05,0.19,0.03,0.3c0,0.04,0,0.08,0,0.11c0,0.11,0,0.23,0,0.34c0,0.06,0,0.12,0,0.19
		c0,0.12,0,0.24,0,0.35C13.78,14.36,13.72,14.4,13.73,14.46z M15.13,6.96c-0.15,0.19-0.28,0.4-0.45,0.57
		c-0.13,0.12-0.43,0.09-0.62-0.08c-0.2-0.17-0.39-0.34-0.59-0.51c-0.06-0.03-0.1-0.09-0.15-0.14c-0.09-0.07-0.18-0.14-0.26-0.2
		c-0.03-0.01-0.03-0.04-0.03-0.06c-0.11-0.04-0.18-0.13-0.26-0.2c-0.02-0.02-0.04-0.04-0.06-0.06c-0.26-0.19-0.48-0.42-0.73-0.62
		c-0.03-0.01-0.04-0.03-0.05-0.06c-0.35-0.29-0.7-0.58-1.03-0.89c-0.05-0.04-0.13-0.05-0.15-0.12c-0.33-0.26-0.63-0.55-0.91-0.87
		c-0.03-0.03-0.07-0.06-0.1-0.1C9.63,3.54,9.54,3.45,9.45,3.37C9.42,3.35,9.4,3.32,9.38,3.3C9.11,3.04,8.83,2.81,8.5,2.63
		c-0.05-0.02-0.1-0.05-0.15-0.07C8.17,2.52,7.99,2.49,7.8,2.51C7.73,2.54,7.66,2.57,7.59,2.6C7.21,2.91,6.82,3.21,6.44,3.53
		C5.92,3.98,5.45,4.49,4.94,4.94c-0.59,0.53-1.21,1.03-1.86,1.5C2.74,6.69,2.44,6.98,2.19,7.32c-0.3,0.4-0.53,0.45-0.92,0.1
		C1.25,7.4,1.24,7.39,1.22,7.37C1.16,7.33,1.13,7.28,1.1,7.21C1.04,7.14,1.01,7.06,0.99,6.98C0.92,6.9,0.96,6.8,0.96,6.71
		c0.02-0.2,0.15-0.32,0.29-0.45c0.14-0.14,0.33-0.21,0.48-0.35C1.8,5.81,1.93,5.76,2.04,5.69C2.06,5.67,2.08,5.66,2.1,5.65
		C2.75,5.1,3.4,4.55,4.05,4C4.53,3.6,5,3.18,5.48,2.79c0.75-0.61,1.43-1.3,2.22-1.87c0.07-0.05,0.15-0.1,0.22-0.14
		c0.03-0.02,0.06-0.04,0.09,0.01c0.06,0,0.09,0.04,0.12,0.09c0.22,0.05,0.38,0.2,0.56,0.33C8.7,1.21,8.72,1.22,8.74,1.24
		c0.15,0.11,0.29,0.24,0.41,0.38c0.02,0.01,0.04,0.03,0.07,0.04c0.1,0.09,0.19,0.19,0.29,0.28c0.04,0.04,0.08,0.08,0.12,0.12
		c0.28,0.21,0.53,0.45,0.79,0.67c0.04,0.04,0.11,0.05,0.12,0.12c0.1,0.05,0.19,0.11,0.26,0.2c0.05,0.04,0.1,0.08,0.15,0.12
		c0.32,0.25,0.63,0.52,0.94,0.79c0.04,0.04,0.08,0.08,0.12,0.12c0.18,0.09,0.32,0.24,0.48,0.38c0.21,0.18,0.42,0.37,0.63,0.55
		c0.25,0.21,0.51,0.42,0.77,0.63c0.03,0.01,0.05,0.03,0.07,0.06c0.08,0.07,0.18,0.11,0.23,0.2c0.03,0.02,0.06,0.04,0.08,0.06
		c0.08,0.07,0.2,0.09,0.24,0.21c0.07,0.02,0.14,0.05,0.17,0.12c0.21,0.14,0.41,0.29,0.46,0.56C15.14,6.89,15.15,6.93,15.13,6.96z"/>
	<path class="st5" d="M13.12,4.51c0.06-0.22,0.03-0.44,0.02-0.67c0-0.01,0.01-0.03,0.01-0.04c0.06,0.1,0.02,0.22,0.03,0.33
		c0.01,0.13,0,0.26,0,0.39c0,0.02,0,0.06-0.03,0.06C13.11,4.57,13.12,4.53,13.12,4.51z"/>
	<path class="st6" d="M13.17,3.74c-0.06-0.13-0.02-0.27-0.03-0.4c-0.01-0.13,0-0.26,0-0.39c0-0.01,0.01-0.02,0.01-0.03
		c0.05,0.17,0.01,0.35,0.02,0.52C13.18,3.54,13.17,3.64,13.17,3.74z"/>
	<path class="st7" d="M4.92,12.18c-0.01,0.01-0.02,0.02-0.03,0.03c0-0.24,0-0.47,0-0.71c0.06,0.14,0.01,0.29,0.03,0.43
		C4.92,12.01,4.92,12.1,4.92,12.18z"/>
	<g>
		<g>
			<path class="st2" d="M13.17,3.74c-0.06-0.13-0.02-0.27-0.03-0.4c-0.01-0.13,0-0.26,0-0.39c-0.08,0.03-0.13,0.11-0.26,0.12
				c0.1-0.09,0.18-0.16,0.25-0.23c0-0.13,0-0.26,0-0.38c-0.13,0.01-0.22,0.15-0.37,0.14c0.13-0.09,0.22-0.23,0.37-0.31
				c0.01-0.14,0.02-0.27,0.03-0.41c-0.07,0.03-0.13,0.09-0.24,0.08c0.1-0.05,0.15-0.14,0.24-0.17c0-0.11,0.01-0.21,0-0.32
				c-0.01-0.15-0.11-0.24-0.26-0.27c-0.29,0.17-0.59,0.34-0.88,0.51c-0.01-0.01-0.01-0.02-0.02-0.02c0.15-0.18,0.31-0.36,0.46-0.54
				c-0.16,0.04-0.31,0.03-0.47,0c-0.11,0.05-0.2,0.15-0.34,0.18c0.03-0.06,0.05-0.11,0.07-0.15c-0.14-0.02-0.26-0.01-0.23,0.19
				c0,0.01-0.01,0.02-0.01,0.03c0.02,0.12-0.09,0.23-0.01,0.35c0.06,0,0.1-0.07,0.18-0.05c-0.05,0.08-0.1,0.15-0.18,0.2
				c0,0.01,0,0.01,0,0.02c0,0.17,0,0.34,0,0.51c0,0.1,0.01,0.19,0.01,0.29c0.1-0.03,0.17-0.12,0.3-0.14
				c-0.1,0.09-0.18,0.17-0.28,0.21c-0.08,0.12,0.01,0.23,0,0.35c0.21-0.11,0.41-0.22,0.62-0.33c-0.15,0.2-0.33,0.37-0.53,0.51
				c0.09,0.07,0.17,0.13,0.26,0.2c0.16-0.12,0.34-0.21,0.52-0.29c-0.09,0.16-0.26,0.24-0.37,0.38c0.1,0.17,0.27,0.27,0.42,0.38
				c0.13-0.04,0.23-0.15,0.4-0.18C12.73,3.89,12.65,4,12.58,4.1c0.04,0.04,0.07,0.08,0.11,0.11c0.14,0.09,0.24,0.26,0.42,0.3
				c0.06-0.22,0.03-0.44,0.02-0.67c0-0.01,0.01-0.03,0.01-0.04C13.16,3.78,13.17,3.76,13.17,3.74z"/>
			<path class="st2" d="M11.47,2.39c0-0.17,0-0.34,0-0.51C11.42,2.06,11.43,2.22,11.47,2.39z"/>
		</g>
	</g>
	<g>
		<g>
			<g>
				<g>
					<path class="st8" d="M8.09,14.5c0.01-0.26,0-0.53,0-0.8c-0.26,0.15-0.52,0.29-0.79,0.44c0.25-0.23,0.5-0.46,0.79-0.64
						c0-0.23,0-0.45,0-0.68c-0.33,0.19-0.66,0.39-0.99,0.58c-0.01-0.01-0.02-0.03-0.02-0.04c0.34-0.23,0.66-0.5,1.01-0.72
						c0-0.34,0-0.69,0-1.03c-0.21,0.12-0.42,0.24-0.64,0.35c0,0.03,0,0.06,0,0.09c0,0.23-0.13,0.31-0.35,0.24
						c-0.04-0.2-0.05-0.39,0-0.59c0.02-0.04,0.05-0.06,0.09-0.06c0-0.03,0.01-0.06,0.04-0.07c0.28-0.2,0.55-0.39,0.83-0.59
						c0.01-0.01,0.03-0.01,0.04-0.01c0-0.12,0-0.24,0-0.35c-0.37,0.21-0.73,0.44-1.12,0.62c0.37-0.27,0.73-0.57,1.12-0.82
						c0-0.24,0-0.47,0-0.71c-0.35,0.2-0.7,0.4-1.05,0.6c-0.01-0.01-0.01-0.02-0.02-0.03c0.15-0.11,0.29-0.22,0.44-0.32
						c0.21-0.15,0.4-0.32,0.63-0.44c-0.04-0.1-0.01-0.22-0.1-0.3C7.7,9.38,7.42,9.55,7.12,9.68c0.25-0.2,0.49-0.41,0.77-0.56
						C7.86,9.08,7.82,9.07,7.77,9.06C7.49,9,7.2,9,6.91,9.01C6.73,9.14,6.54,9.24,6.33,9.33c0.09-0.13,0.23-0.2,0.32-0.32
						c-0.16,0-0.32,0-0.48,0C5.94,9.16,5.7,9.3,5.43,9.4c0.11-0.13,0.23-0.26,0.34-0.39c-0.18,0-0.35-0.01-0.53,0
						c-0.26,0.01-0.32,0.07-0.4,0.32C4.83,9.4,4.8,9.48,4.81,9.56c0.06,0,0.09-0.06,0.16-0.05C4.96,9.6,4.88,9.63,4.83,9.68
						c-0.06,0.13-0.02,0.27-0.02,0.41c0.08-0.04,0.15-0.08,0.23-0.12c-0.05,0.09-0.11,0.18-0.23,0.17
						c-0.01,0.23,0.03,0.45,0.06,0.68c0.25-0.15,0.5-0.29,0.77-0.45c-0.01,0.05-0.03,0.07-0.06,0.08c-0.2,0.14-0.4,0.28-0.59,0.43
						c-0.08,0.06-0.1,0.03-0.13-0.04c0.01,0.14,0.02,0.28,0.03,0.41c0.28-0.12,0.53-0.3,0.8-0.44c0.07-0.04,0.15-0.08,0.22-0.12
						c0.01,0.01,0.01,0.02,0.02,0.03c-0.15,0.11-0.3,0.22-0.45,0.33c-0.16,0.12-0.31,0.23-0.47,0.35c-0.04,0.03-0.07,0.07-0.13,0.05
						c0,0.01,0,0.02,0,0.03c0.06,0.14,0.01,0.29,0.03,0.43c0.01,0.08,0,0.17,0,0.25c0.35-0.2,0.7-0.4,1.05-0.6
						C5.98,11.6,5.99,11.61,6,11.62c-0.36,0.26-0.72,0.53-1.08,0.79c0,0.11,0,0.22,0,0.32c0.26-0.15,0.53-0.3,0.79-0.45
						c0.01,0.01,0.01,0.02,0.02,0.03c-0.27,0.19-0.54,0.39-0.81,0.58c0,0.11,0,0.22,0,0.33c0.24-0.14,0.49-0.28,0.73-0.42
						c0.01,0.01,0.01,0.02,0.02,0.03c-0.25,0.18-0.49,0.37-0.75,0.53c0,0.34,0,0.69,0,1.03C5.28,14.21,5.65,14,6.01,13.8
						c-0.11,0.13-0.24,0.21-0.38,0.3c-0.22,0.19-0.45,0.36-0.71,0.5c-0.05,0.11-0.03,0.22-0.01,0.34c0.06,0.22,0.05,0.22,0.28,0.21
						c0.1-0.13,0.25-0.17,0.38-0.25c0.34-0.2,0.68-0.4,1.04-0.57c-0.33,0.26-0.66,0.53-0.99,0.79c0.04,0.01,0.08,0.01,0.12,0.01
						c-0.04,0-0.08,0-0.12-0.01c-0.03,0.01-0.06,0-0.08,0.03c0.19,0,0.37,0,0.56,0c0.02,0,0.04,0,0.06,0
						c0.04-0.11,0.16-0.12,0.24-0.19c0.07-0.05,0.15-0.09,0.24-0.11c-0.1,0.09-0.21,0.18-0.31,0.27c0.04,0.01,0.08,0.01,0.12,0.01
						c0.04,0,0.08,0,0.12-0.01c-0.04,0-0.08,0-0.12,0.01c-0.04,0-0.08,0-0.12-0.01c-0.02,0-0.05,0-0.06,0.03c0.18,0,0.36,0,0.53,0
						c0,0,0,0,0,0c0.02,0,0.04,0,0.06,0c0.06-0.11,0.17-0.13,0.26-0.19c0.14-0.09,0.29-0.17,0.45-0.24
						c-0.07,0.15-0.2,0.26-0.31,0.38c-0.03,0-0.05,0-0.06,0.03c0.21,0.06,0.42,0.01,0.62,0.02c0-0.01,0-0.02-0.01-0.02
						c0.07-0.06,0.15-0.1,0.24-0.12c0.05-0.04,0.02-0.09,0.03-0.14C8.11,14.74,8.08,14.62,8.09,14.5z M5.8,15.12
						c-0.02,0-0.04,0-0.06,0C5.76,15.12,5.78,15.12,5.8,15.12c0.04,0,0.08,0,0.12,0C5.88,15.11,5.84,15.11,5.8,15.12z M7.55,15.12
						c0.02,0,0.05,0,0.07,0C7.59,15.12,7.57,15.12,7.55,15.12z"/>
				</g>
			</g>
			<g>
				<path class="st8" d="M7.24,11.64c0.2,0.01,0.2,0.01,0.21,0.24c0.21-0.15,0.42-0.29,0.63-0.44c0-0.11,0-0.22,0-0.33
					c-0.25,0.15-0.51,0.29-0.76,0.44C7.29,11.58,7.24,11.59,7.24,11.64z"/>
			</g>
		</g>
	</g>
	<path class="st9" d="M7.21,8.76c0.17-0.04,0.33-0.04,0.5,0C7.54,8.76,7.38,8.76,7.21,8.76z"/>
	<g>
		<path class="st10" d="M12.23,15.12c-0.17,0-0.35,0-0.52-0.01c-0.02,0.01-0.05,0-0.06,0.03c0.2,0,0.39,0,0.59,0
			C12.23,15.13,12.23,15.13,12.23,15.12z"/>
		<path class="st10" d="M10.8,15.11c-0.02,0.01-0.05,0-0.06,0.03c0.19,0,0.37,0,0.56,0C11.13,15.08,10.96,15.13,10.8,15.11z"/>
		<path class="st10" d="M9.33,15.11c-0.02,0.01-0.05,0-0.06,0.03c0.18,0,0.35,0,0.53,0C9.64,15.08,9.48,15.13,9.33,15.11z"/>
		<path class="st10" d="M10.07,15.11c-0.02,0.01-0.05,0-0.06,0.03c0.18,0,0.35,0,0.53,0C10.38,15.08,10.22,15.13,10.07,15.11z"/>
		<path class="st10" d="M8.45,15.11c0.16,0.07,0.33,0.02,0.5,0.03C8.78,15.08,8.61,15.13,8.45,15.11z"/>
	</g>
	<path class="st11" d="M5.5,8.88c0.16-0.06,0.33-0.02,0.5-0.02C5.84,8.91,5.67,8.87,5.5,8.88z"/>
	<path class="st12" d="M2.39,9.09c-0.01,0-0.02,0.01-0.03,0.01c0-0.15,0-0.3,0-0.44C2.42,8.79,2.38,8.94,2.39,9.09z"/>
	<path class="st4" d="M9.17,5.27c0.01,0.04,0.03,0.08,0.07,0.09c0.05,0.1,0.1,0.19,0.15,0.29C9.37,5.71,9.42,5.75,9.42,5.8
		C9.5,6.06,9.44,6.31,9.39,6.57C9.36,6.63,9.33,6.68,9.3,6.74C9.02,7.23,8.56,7.43,8.03,7.51c-0.04,0-0.08,0-0.12,0
		C7.45,7.49,7.06,7.33,6.78,6.94C6.47,6.5,6.48,5.76,6.84,5.33C7.14,4.97,7.54,4.8,8,4.8c0.04,0,0.08,0,0.12,0
		C8.53,4.82,8.89,4.97,9.17,5.27z M7.48,7.1c0.09,0.08,0.2,0.13,0.32,0.15c0.05,0.02,0.1,0.03,0.15,0.05
		C8.07,7.31,8.19,7.28,8.3,7.25c0.45-0.13,0.74-0.52,0.79-1.04c0-0.03,0-0.06,0-0.09C9.06,5.68,8.85,5.36,8.47,5.15
		C8.43,5.11,8.39,5.09,8.33,5.09c-0.47-0.16-1-0.02-1.27,0.48c-0.21,0.39-0.18,1.1,0.32,1.46C7.42,7.06,7.45,7.08,7.48,7.1z"/>
	<path class="st4" d="M3.63,10.32c0,0.04,0,0.08,0,0.12c0,0.13,0,0.25,0,0.38c0,0.03,0,0.06,0,0.09c0,0.12,0,0.24,0,0.36
		c0,0.05,0,0.1,0,0.15c0,0.13,0,0.25,0,0.38c0,0.05,0,0.1,0,0.15c0,0.13,0,0.25,0,0.38c0,0.06,0,0.12,0,0.17
		c-0.01,0.24-0.05,0.3-0.25,0.33c-0.06,0.01-0.12,0.01-0.11-0.08c0-0.06,0-0.12,0-0.19c0-0.12,0-0.23,0-0.35c0-0.06,0-0.12,0-0.17
		c0-0.12,0-0.24,0-0.35c0-0.06,0-0.12,0-0.17c0-0.12,0-0.23,0-0.35c0-0.03,0-0.07,0-0.1c0-0.12,0-0.24,0-0.35c0-0.05,0-0.09,0-0.14
		c0-0.12,0-0.24,0-0.36c0-0.07,0-0.13,0-0.2c0-0.04,0-0.08,0-0.12c0-0.22,0.06-0.27,0.27-0.27c0.12,0,0.06,0.1,0.08,0.15
		c0,0.06,0,0.11,0,0.17C3.63,10.07,3.63,10.2,3.63,10.32z"/>
	<path class="st4" d="M3.27,8.74c0-0.05,0-0.1,0-0.14c0-0.11,0.01-0.22,0-0.33c0-0.08,0.05-0.13,0.11-0.16
		c0.07-0.03,0.15-0.02,0.23,0C3.64,8.12,3.62,8.16,3.62,8.2c0,0.05,0,0.11,0.01,0.16c0,0.04,0,0.08,0,0.12
		C3.62,8.73,3.61,8.72,3.4,8.78C3.34,8.8,3.31,8.77,3.27,8.74z"/>
	<g>
		<path class="st13" d="M5.57,14.89c-0.13,0.08-0.28,0.12-0.38,0.25c0.11,0.02,0.23-0.03,0.35,0c0.02-0.03,0.06-0.02,0.08-0.03
			c0.33-0.26,0.66-0.53,0.99-0.79C6.25,14.49,5.91,14.69,5.57,14.89z"/>
		<path class="st13" d="M6,11.62c-0.01-0.01-0.02-0.02-0.02-0.03c-0.35,0.2-0.7,0.4-1.05,0.6c-0.01,0.01-0.02,0.02-0.03,0.03
			c0,0.07,0,0.13,0,0.2c0.01,0,0.02,0,0.02,0.01C5.28,12.15,5.64,11.88,6,11.62z"/>
		<path class="st13" d="M8.09,10.42c-0.39,0.24-0.74,0.55-1.12,0.82c0.39-0.18,0.75-0.41,1.12-0.62
			C8.09,10.55,8.09,10.48,8.09,10.42z"/>
		<path class="st13" d="M4.89,11.27c0,0.07,0,0.14,0,0.2c0.06,0.01,0.09-0.03,0.13-0.05c0.16-0.12,0.31-0.23,0.47-0.35
			c0.15-0.11,0.3-0.22,0.45-0.33c-0.01-0.01-0.01-0.02-0.02-0.03c-0.07,0.04-0.15,0.08-0.22,0.12C5.43,10.97,5.18,11.15,4.89,11.27z
			"/>
		<path class="st13" d="M8.09,9.71c0-0.07,0-0.13,0-0.2C7.85,9.63,7.66,9.8,7.45,9.95c-0.15,0.1-0.29,0.21-0.44,0.32
			c0.01,0.01,0.01,0.02,0.02,0.03C7.39,10.1,7.74,9.9,8.09,9.71z"/>
		<path class="st13" d="M7.1,13.41c0.33-0.19,0.66-0.39,0.99-0.58c0-0.06,0-0.12,0-0.17c-0.35,0.22-0.67,0.48-1.01,0.72
			C7.09,13.38,7.1,13.39,7.1,13.41z"/>
		<path class="st13" d="M6.86,15.14c0.12,0,0.23,0.03,0.35-0.02c0.01-0.03,0.03-0.03,0.06-0.03c0.11-0.12,0.23-0.23,0.31-0.38
			c-0.16,0.07-0.31,0.15-0.45,0.24C7.03,15.01,6.92,15.03,6.86,15.14z"/>
		<path class="st13" d="M5.77,9.01C5.66,9.14,5.55,9.27,5.43,9.4C5.7,9.3,5.94,9.16,6.18,9.01C6.04,9.01,5.91,9.01,5.77,9.01z"/>
		<path class="st13" d="M8.09,13.7c0-0.07,0-0.13,0-0.2c-0.29,0.18-0.54,0.41-0.79,0.64C7.56,13.99,7.82,13.85,8.09,13.7z"/>
		<path class="st13" d="M7.89,9.12C7.61,9.26,7.37,9.48,7.12,9.68c0.3-0.13,0.58-0.3,0.86-0.47C7.95,9.18,7.92,9.15,7.89,9.12z"/>
		<path class="st13" d="M7.22,11.57c-0.03,0.02-0.04,0.04-0.04,0.07c0.02,0,0.04,0,0.06,0c0.01-0.05,0.05-0.06,0.09-0.09
			c0.25-0.15,0.51-0.29,0.76-0.44c0-0.05,0-0.1,0-0.14c-0.01,0-0.03,0-0.04,0.01C7.77,11.18,7.49,11.38,7.22,11.57z"/>
		<path class="st13" d="M7.45,11.89c0,0.03,0,0.05,0,0.08c0.21-0.12,0.42-0.24,0.64-0.35c0-0.06,0-0.11,0-0.17
			C7.87,11.59,7.66,11.74,7.45,11.89z"/>
		<path class="st13" d="M4.99,10.89c0.19-0.15,0.39-0.29,0.59-0.43c0.02-0.02,0.05-0.03,0.06-0.08c-0.27,0.16-0.52,0.3-0.77,0.45
			c0,0.01,0,0.02,0,0.03C4.89,10.93,4.91,10.95,4.99,10.89z"/>
		<path class="st13" d="M6.66,9.01C6.57,9.13,6.42,9.2,6.33,9.33c0.2-0.09,0.4-0.19,0.58-0.32C6.83,9.01,6.74,9.01,6.66,9.01z"/>
		<path class="st13" d="M6.15,15.14c0.04,0,0.08,0,0.11,0c0.01-0.03,0.04-0.03,0.06-0.03c0.1-0.09,0.21-0.18,0.31-0.27
			c-0.09,0.02-0.17,0.06-0.24,0.11C6.32,15.02,6.2,15.03,6.15,15.14z"/>
		<path class="st13" d="M7.83,15.12c0,0.01,0,0.02,0.01,0.02c0.1-0.01,0.26,0.08,0.23-0.14C7.97,15.01,7.9,15.06,7.83,15.12z"/>
		<path class="st13" d="M5.04,9.97c-0.08,0.04-0.15,0.08-0.23,0.12c0,0.02,0,0.04,0,0.05C4.93,10.15,4.98,10.06,5.04,9.97z"/>
		<path class="st13" d="M4.97,9.52C4.9,9.5,4.86,9.56,4.81,9.56c0,0.04-0.03,0.09,0.02,0.12C4.88,9.63,4.96,9.6,4.97,9.52z"/>
		<path class="st13" d="M5.71,12.29c-0.26,0.15-0.53,0.3-0.79,0.45c0,0.06,0,0.11,0,0.17c0.27-0.19,0.54-0.39,0.81-0.58
			C5.73,12.31,5.72,12.3,5.71,12.29z"/>
		<path class="st13" d="M4.92,13.38c0.26-0.16,0.51-0.35,0.75-0.53c-0.01-0.01-0.01-0.02-0.02-0.03c-0.24,0.14-0.49,0.28-0.73,0.42
			C4.92,13.29,4.92,13.33,4.92,13.38z"/>
		<path class="st13" d="M6.01,13.8C5.65,14,5.28,14.21,4.92,14.41c0,0.02-0.01,0.03-0.01,0.05c0.06-0.03,0.12-0.06,0.18-0.09
			c0.18-0.09,0.33-0.23,0.53-0.28C5.76,14.01,5.9,13.92,6.01,13.8z"/>
	</g>
	<path class="st4" d="M7.24,11.64c-0.02,0-0.04,0-0.06,0c-0.04,0.01-0.07,0.02-0.09,0.06c-0.05,0.2-0.05,0.39,0,0.59
		c0.22,0.07,0.35-0.01,0.35-0.24c0-0.03,0-0.06,0-0.09c0-0.03,0-0.05,0-0.08C7.44,11.65,7.44,11.65,7.24,11.64z"/>
	<path class="st4" d="M3.62,13.71c-0.03,0-0.07,0-0.1,0c-0.23,0-0.25,0.01-0.25,0.24c0,0.05,0,0.1,0,0.15
		c0.01,0.07-0.04,0.18,0.03,0.22c0.09,0.05,0.19-0.01,0.29-0.05c0.01-0.01,0.02-0.02,0.03-0.03C3.68,14.06,3.68,13.88,3.62,13.71z"
		/>
	<g>
		<path class="st13" d="M9.42,5.8C9.5,6.06,9.44,6.31,9.39,6.57c0.4-0.25,0.8-0.5,1.2-0.75c0.2-0.12,0.39-0.25,0.59-0.37
			c-0.15-0.13-0.3-0.25-0.44-0.38c-0.39,0.22-0.77,0.45-1.16,0.67C9.53,5.76,9.48,5.8,9.42,5.8z"/>
		<path class="st13" d="M9.24,5.36c0.05,0.1,0.1,0.19,0.15,0.29c0.39-0.25,0.78-0.49,1.17-0.74c-0.08-0.06-0.15-0.13-0.23-0.19
			C10.01,4.91,9.68,5.1,9.36,5.29C9.32,5.31,9.28,5.34,9.24,5.36z"/>
		<path class="st13" d="M9.17,5.27c0.28-0.21,0.59-0.38,0.88-0.57c0.05-0.03,0.09-0.07,0.14-0.1c-0.15-0.11-0.26-0.27-0.42-0.36
			C9.53,4.36,9.29,4.49,9.06,4.62c0-0.01-0.01-0.02-0.01-0.02c0.22-0.14,0.45-0.28,0.67-0.42C9.64,4.12,9.57,4.06,9.51,4
			C9.05,4.27,8.59,4.53,8.13,4.79C8.53,4.82,8.89,4.97,9.17,5.27z"/>
		<path class="st13" d="M13.76,13.41c-0.17,0.08-0.32,0.2-0.51,0.25c0.17-0.12,0.34-0.24,0.51-0.36c0.02-0.1-0.04-0.2-0.03-0.3
			c-0.19,0.1-0.36,0.22-0.57,0.27c0.19-0.13,0.38-0.26,0.57-0.39c0.02-0.1-0.01-0.2-0.03-0.3c-0.42,0.24-0.84,0.48-1.26,0.72
			c-0.01-0.01-0.01-0.02-0.02-0.04c0.43-0.29,0.85-0.58,1.28-0.86c0.02-0.1-0.04-0.2-0.03-0.3c-0.42,0.24-0.84,0.48-1.26,0.72
			c-0.08,0.04-0.15,0.11-0.29,0.11c0.53-0.36,1.04-0.69,1.54-1.03c-0.01-0.1-0.02-0.2-0.03-0.3c-0.39,0.22-0.79,0.45-1.18,0.67
			c-0.21,0.12-0.42,0.24-0.63,0.36c-0.12,0.09-0.26,0.16-0.4,0.22c0.11-0.1,0.23-0.18,0.37-0.25c0.58-0.39,1.17-0.78,1.75-1.17
			c0.03-0.02,0.06-0.02,0.1-0.03c0-0.11,0-0.22,0-0.33c-0.3,0.17-0.59,0.34-0.89,0.5c-0.07,0.04-0.14,0.08-0.22,0.12
			c-0.07,0.06-0.16,0.1-0.26,0.12c0.08-0.05,0.15-0.1,0.23-0.14c0.35-0.22,0.7-0.45,1.06-0.67c0.03-0.02,0.05-0.04,0.09-0.04
			c0.02,0,0.03-0.01,0.02-0.03c-0.05-0.1-0.02-0.21-0.02-0.31c-0.01-0.2,0-0.4,0-0.6c-0.22,0.11-0.41,0.26-0.64,0.35
			c-0.01,0.14,0.03,0.3-0.06,0.43c-0.12,0.18-0.32,0.24-0.52,0.25c-0.19,0.01-0.38,0.01-0.57,0c-0.27-0.02-0.54,0.05-0.82,0.03
			c-0.33,0-0.67,0-1,0c-0.21-0.06-0.42,0.01-0.63-0.05c-0.15-0.04-0.24-0.12-0.28-0.28c-0.04-0.18-0.06-0.36-0.06-0.55
			c-0.04-0.17-0.04-0.33,0-0.5c0-0.08,0-0.16,0-0.24C8.97,9.52,8.88,9.56,8.8,9.61l0,0c0.09-0.04,0.17-0.09,0.26-0.13
			c0-0.02,0-0.04,0.01-0.06C9.03,9.43,9,9.45,8.96,9.46C9,9.45,9.03,9.43,9.06,9.42c0.05-0.11,0.02-0.24,0.12-0.34
			c0.15-0.15,0.31-0.25,0.53-0.25c0.12,0,0.23,0,0.35-0.01c0.09-0.16,0.26-0.2,0.4-0.29c0.73-0.47,1.47-0.93,2.21-1.39
			c0.09-0.06,0.18-0.11,0.27-0.17c-0.05-0.08-0.13-0.14-0.2-0.19c-0.51,0.3-1.03,0.6-1.54,0.9c-0.65,0.38-1.3,0.75-1.95,1.12
			C9.09,8.9,8.94,9,8.77,9.07c0.12-0.14,0.29-0.21,0.44-0.3c0.48-0.3,0.96-0.6,1.43-0.9c0.65-0.41,1.29-0.81,1.94-1.22
			c-0.07-0.06-0.14-0.12-0.21-0.18c-1.08,0.62-2.15,1.24-3.23,1.86C9.13,8.35,9.11,8.35,9.1,8.36c-0.15,0.1-0.3,0.21-0.48,0.26
			c0.13-0.12,0.29-0.2,0.44-0.29c0.51-0.32,1.02-0.65,1.53-0.97c0.54-0.34,1.08-0.68,1.62-1.02c-0.07-0.06-0.14-0.12-0.21-0.18
			c-0.53,0.31-1.05,0.61-1.58,0.92C10.21,7.2,9.99,7.32,9.77,7.45c-0.14,0.1-0.3,0.18-0.47,0.24c0.15-0.09,0.29-0.18,0.44-0.26
			c0.67-0.42,1.34-0.84,2-1.26c0.05-0.03,0.1-0.07,0.14-0.1c-0.05-0.08-0.13-0.13-0.21-0.18c-0.55,0.32-1.09,0.64-1.64,0.95
			c-0.3,0.18-0.61,0.35-0.91,0.52C8.98,7.46,8.83,7.55,8.66,7.6C8.8,7.51,8.95,7.42,9.09,7.33C9.62,7,10.14,6.67,10.66,6.34
			c0.23-0.15,0.47-0.3,0.7-0.45c0.06-0.04,0.12-0.08,0.19-0.1c-0.06-0.08-0.12-0.15-0.21-0.2c-0.63,0.37-1.27,0.73-1.9,1.1
			C9.4,6.72,9.36,6.76,9.3,6.74C9.02,7.23,8.56,7.43,8.03,7.51C7.91,7.58,7.8,7.66,7.66,7.69c0.09-0.06,0.17-0.12,0.26-0.18
			C7.45,7.49,7.06,7.33,6.78,6.94C6.47,6.5,6.48,5.76,6.84,5.33C7.14,4.97,7.54,4.8,8,4.8c0-0.04,0.02-0.06,0.05-0.08
			c0.43-0.28,0.87-0.55,1.3-0.83C9.3,3.81,9.24,3.74,9.15,3.71C8.78,3.92,8.41,4.12,8.04,4.34C7.57,4.61,7.1,4.88,6.62,5.15
			c-0.05,0.03-0.1,0.07-0.18,0.05C7.07,4.79,7.69,4.39,8.3,3.98c0.22-0.14,0.43-0.29,0.65-0.44C8.89,3.46,8.83,3.39,8.74,3.36
			C8.3,3.61,7.86,3.87,7.42,4.13C7.32,4.2,7.22,4.26,7.1,4.28C7.2,4.22,7.29,4.16,7.39,4.1c0.42-0.28,0.84-0.55,1.26-0.83
			c-0.07-0.06-0.13-0.12-0.2-0.18C8.29,3.18,8.13,3.27,7.97,3.36c0-0.01-0.01-0.01-0.01-0.02c0.14-0.1,0.29-0.2,0.43-0.3
			C8.33,2.94,8.23,2.9,8.13,2.89C7.94,3.01,7.74,3.13,7.52,3.2c0.14-0.12,0.29-0.24,0.43-0.36c-0.1-0.01-0.18,0.04-0.24,0.1
			C7.57,3.07,7.43,3.19,7.28,3.32c-0.23,0.2-0.47,0.4-0.71,0.61c-0.31,0.27-0.62,0.53-0.93,0.8C5.34,4.99,5.03,5.25,4.73,5.51
			c-0.24,0.2-0.48,0.41-0.72,0.62C3.73,6.37,3.44,6.59,3.18,6.85c0.27-0.12,0.52-0.29,0.77-0.43c0.23-0.13,0.46-0.26,0.7-0.39
			c0.07-0.06,0.16-0.11,0.26-0.12c-0.08,0.05-0.15,0.1-0.23,0.15c-0.7,0.47-1.41,0.93-2.11,1.4C2.54,7.47,2.51,7.47,2.48,7.48
			C2.32,7.58,2.29,7.74,2.31,7.92C2.59,7.8,2.84,7.63,3.1,7.48C3.55,7.23,4,6.97,4.45,6.71c0.1-0.07,0.19-0.13,0.31-0.16
			C4.67,6.63,4.57,6.68,4.48,6.74C3.76,7.2,3.04,7.66,2.33,8.13c0,0.09,0,0.19,0.01,0.28c0.18-0.06,0.33-0.19,0.51-0.25
			C2.68,8.27,2.53,8.41,2.34,8.48c0.03,0.05,0.02,0.11,0.03,0.17c0.05,0.14,0.01,0.29,0.02,0.44c0.29-0.16,0.58-0.33,0.88-0.49
			c0-0.11,0.01-0.22,0-0.33c0-0.08,0.05-0.13,0.11-0.16c0.07-0.03,0.15-0.02,0.23,0C3.64,8.12,3.62,8.16,3.62,8.2
			c0,0.05,0,0.11,0.01,0.16c0.28-0.11,0.53-0.3,0.79-0.44C4.5,7.88,4.57,7.84,4.65,7.8c0.13-0.08,0.26-0.17,0.41-0.2
			C4.93,7.67,4.81,7.75,4.68,7.82C4.35,8.04,4.03,8.25,3.7,8.46C3.68,8.47,3.65,8.47,3.63,8.48C3.62,8.73,3.61,8.72,3.4,8.78
			C3.34,8.8,3.31,8.77,3.27,8.74C3.02,8.9,2.77,9.06,2.52,9.21C2.47,9.24,2.43,9.29,2.37,9.29c0,0.1,0,0.2,0,0.3
			C2.6,9.51,2.8,9.36,3.02,9.24C3.79,8.8,4.56,8.36,5.33,7.91c0.1-0.07,0.19-0.13,0.31-0.17C5.55,7.83,5.46,7.89,5.36,7.94
			C4.7,8.36,4.04,8.79,3.39,9.21c-0.32,0.2-0.63,0.41-0.94,0.61C2.42,9.84,2.4,9.85,2.37,9.85c0,0.22,0,0.43,0,0.65
			c0.24-0.09,0.44-0.25,0.66-0.36C3.11,10.1,3.19,10.05,3.27,10c0-0.04,0-0.08,0-0.12c0-0.22,0.06-0.27,0.27-0.27
			c0.12,0,0.06,0.1,0.08,0.15c0.26-0.1,0.49-0.28,0.74-0.41c0.08-0.04,0.16-0.11,0.26-0.12c0.03-0.01,0.03-0.03,0.03-0.06
			C4.77,9,4.96,8.94,5.15,8.88c0.02,0,0.04,0,0.06,0c0.16-0.11,0.33-0.2,0.52-0.27C5.66,8.66,5.58,8.7,5.52,8.76
			C5.47,8.79,5.39,8.8,5.38,8.88c0.04,0,0.08,0,0.12,0c0.16-0.06,0.33-0.02,0.5-0.02c0.4-0.03,0.8-0.07,1.2-0.1
			c0.17-0.04,0.33-0.04,0.5,0c0.18,0.02,0.36,0.06,0.53,0.13c0.1,0.1,0.2,0.2,0.21,0.35C8.5,9.42,8.47,9.61,8.47,9.8
			c-0.05,0.05-0.02,0.1,0,0.15c0,1.47,0,2.93,0,4.4c0.41-0.23,0.82-0.47,1.24-0.7c0.01,0.01,0.01,0.02,0.02,0.03
			c-0.25,0.16-0.49,0.33-0.74,0.49c-0.18,0.11-0.34,0.26-0.54,0.34c0,0.13,0,0.25,0,0.38c0.31-0.14,0.59-0.33,0.88-0.49
			c0.23-0.13,0.47-0.26,0.7-0.4c0.08-0.05,0.16-0.1,0.24-0.15c0.01,0.01,0.01,0.02,0.02,0.03c-0.08,0.05-0.15,0.1-0.23,0.15
			c-0.51,0.34-1.01,0.68-1.52,1.02c-0.03,0.02-0.06,0.04-0.09,0.04c0,0.01,0,0.02,0,0.03c0.16,0.02,0.33-0.03,0.5,0.03
			c0.01,0,0.02,0,0.03,0c0.07-0.13,0.21-0.16,0.33-0.22c0.41-0.24,0.83-0.48,1.25-0.72c0.11-0.07,0.22-0.14,0.33-0.21
			c0.01,0.01,0.01,0.02,0.02,0.03c-0.1,0.07-0.21,0.14-0.31,0.21c-0.42,0.29-0.84,0.59-1.26,0.88c0.16,0.02,0.32-0.03,0.47,0.03
			c0.02,0,0.04,0,0.06,0c0-0.01,0-0.04,0.01-0.04c0.28-0.17,0.56-0.33,0.84-0.49c0.01,0.01,0.02,0.02,0.02,0.03
			c-0.22,0.16-0.44,0.31-0.66,0.47c0.16,0.02,0.31-0.03,0.47,0.03c0.02,0,0.04,0,0.06,0c0.06-0.11,0.18-0.14,0.28-0.2
			c0.14-0.09,0.29-0.16,0.43-0.25c0.01,0.01,0.01,0.02,0.02,0.03c-0.18,0.13-0.35,0.25-0.53,0.38c0.17,0.02,0.34-0.03,0.5,0.03
			c0.01,0,0.02,0,0.04,0c0.07-0.12,0.2-0.15,0.31-0.22c0.24-0.15,0.49-0.29,0.74-0.43c0.01,0.01,0.01,0.02,0.02,0.03
			c-0.23,0.2-0.46,0.39-0.7,0.59c0.17,0,0.35,0,0.52,0.01c0.22-0.13,0.44-0.26,0.66-0.38c0.01,0.01,0.01,0.01,0.02,0.02
			c-0.1,0.1-0.19,0.19-0.29,0.29c-0.04,0.04-0.09,0.06-0.09,0.13c0.22,0.05,0.44,0.02,0.66,0.03c0.15,0,0.31,0,0.4-0.15
			c0.12-0.18,0.15-0.38,0.14-0.59c-0.08,0.04-0.15,0.08-0.23,0.12c-0.01-0.01-0.01-0.01-0.02-0.02c0.09-0.09,0.19-0.18,0.28-0.27
			c0-0.12,0-0.24,0-0.35c-0.22,0.11-0.42,0.26-0.65,0.35c0.22-0.17,0.41-0.38,0.65-0.53C13.76,13.64,13.76,13.53,13.76,13.41z"/>
		<path class="st13" d="M4.53,13.89c0-0.34,0-0.69,0-1.03c0-0.14,0-0.28,0-0.42c-0.4,0.25-0.81,0.49-1.21,0.74
			c-0.27,0.17-0.54,0.33-0.81,0.5c-0.04,0.03-0.09,0.07-0.14,0.06c0,0.1,0,0.2,0,0.3c0.13-0.02,0.24-0.11,0.35-0.18
			c0.51-0.29,1.02-0.58,1.52-0.88c0.04-0.02,0.07-0.05,0.12-0.04C4.35,12.98,4.31,13,4.28,13.02c-0.61,0.37-1.21,0.75-1.82,1.12
			c-0.03,0.02-0.06,0.02-0.09,0.03c0,0.19,0,0.39-0.01,0.58c0,0.13,0.04,0.24,0.14,0.33c0.11-0.14,0.29-0.2,0.43-0.29
			C3.46,14.49,4,14.19,4.53,13.89z M3.27,14.1c-0.01-0.05,0-0.1,0-0.15c0-0.23,0.01-0.25,0.25-0.24c0.03,0,0.07,0,0.1,0
			c0.05,0.17,0.06,0.35,0,0.52c-0.01,0.01-0.02,0.02-0.03,0.03c-0.09,0.04-0.2,0.1-0.29,0.05C3.23,14.28,3.28,14.17,3.27,14.1z"/>
		<path class="st13" d="M12.21,8.52c-0.13,0.07-0.27,0.15-0.4,0.22c-0.03,0.02-0.08,0.02-0.08,0.08c0.04,0,0.07,0.05,0.12,0.03
			c0.2-0.05,0.39-0.01,0.59-0.02c0.12,0.02,0.23,0.03,0.35,0.06c0.09,0.02,0.15,0.09,0.2,0.17c0.2-0.17,0.42-0.3,0.66-0.41
			c0.02,0,0.03-0.01,0.02-0.03c-0.05-0.11-0.03-0.23-0.03-0.34c-0.01-0.19,0-0.39,0-0.58C13.16,7.98,12.69,8.25,12.21,8.52z"/>
		<path class="st13" d="M10.23,8.82c0.21,0.01,0.41,0.06,0.62,0.03c0.05-0.1,0.16-0.13,0.24-0.19c0.74-0.46,1.48-0.91,2.23-1.37
			c-0.05-0.08-0.13-0.13-0.21-0.18c-0.89,0.51-1.78,1.03-2.67,1.54C10.37,8.71,10.26,8.71,10.23,8.82z"/>
		<path class="st13" d="M11.03,8.76C11.01,8.78,11,8.8,11,8.82c0.04-0.01,0.07,0.05,0.12,0.03c0.15-0.05,0.31-0.01,0.46-0.02
			c0.66-0.4,1.31-0.81,1.97-1.21c0.02-0.01,0.04-0.02,0.07-0.03c-0.07-0.07-0.14-0.13-0.2-0.2c-0.43,0.25-0.86,0.5-1.29,0.75
			C11.76,8.35,11.4,8.56,11.03,8.76z"/>
		<path class="st13" d="M3.38,12.82c-0.06,0.01-0.12,0.01-0.11-0.08c-0.3,0.18-0.58,0.39-0.9,0.55c0,0.1,0,0.2,0,0.3
			c0.23-0.08,0.43-0.23,0.65-0.35c0.51-0.28,1-0.59,1.52-0.86c0-0.14,0-0.28,0-0.41c-0.28,0.17-0.56,0.34-0.83,0.51
			c-0.02,0.01-0.04,0.02-0.07,0.02C3.62,12.74,3.58,12.79,3.38,12.82z"/>
		<path class="st13" d="M3.21,14.78c-0.2,0.12-0.41,0.23-0.59,0.38c0.15,0.09,0.31,0.04,0.47,0.05c0-0.06,0.05-0.07,0.08-0.09
			c0.26-0.15,0.51-0.29,0.77-0.44c0.15-0.1,0.3-0.21,0.48-0.26c0.04-0.02,0.07-0.04,0.11-0.06c0-0.13,0-0.26,0-0.38
			C4.09,14.24,3.65,14.5,3.21,14.78z"/>
		<path class="st13" d="M3.63,9.94c0,0.13,0,0.26,0,0.39c0.26-0.11,0.49-0.27,0.74-0.4c0.06-0.03,0.11-0.06,0.17-0.09
			C4.52,9.67,4.58,9.51,4.59,9.35C4.31,9.53,4.04,9.7,3.76,9.88C3.72,9.9,3.68,9.94,3.63,9.94z"/>
		<path class="st13" d="M4.53,14.35c-0.04,0.02-0.07,0.04-0.11,0.06c-0.13,0.13-0.3,0.2-0.45,0.29c-0.22,0.13-0.44,0.27-0.66,0.4
			c-0.04,0.02-0.1,0.03-0.1,0.09c0.2-0.02,0.41-0.04,0.61-0.06c-0.01-0.04,0.03-0.06,0.06-0.07c0.21-0.12,0.43-0.24,0.64-0.36
			C4.53,14.59,4.53,14.47,4.53,14.35z"/>
		<path class="st13" d="M2.54,10.66c-0.05,0.03-0.1,0.07-0.17,0.08c0,0.11,0,0.21,0,0.32c0.24-0.1,0.44-0.25,0.67-0.37
			c0.08-0.04,0.15-0.08,0.23-0.13c0-0.12,0-0.24,0-0.36C3.02,10.35,2.78,10.51,2.54,10.66z"/>
		<path class="st13" d="M2.37,12.53c0.24-0.09,0.44-0.25,0.66-0.36c0.08-0.04,0.16-0.09,0.24-0.13c0-0.12,0-0.24,0-0.35
			c-0.25,0.15-0.5,0.31-0.74,0.46c-0.05,0.03-0.09,0.08-0.16,0.07C2.37,12.32,2.37,12.42,2.37,12.53z"/>
		<path class="st13" d="M3.18,12.6c0.03-0.02,0.06-0.03,0.09-0.04c0-0.12,0-0.23,0-0.35c-0.28,0.17-0.56,0.34-0.83,0.51
			c-0.02,0.01-0.04,0.02-0.07,0.02c0,0.11,0,0.21,0,0.32C2.65,12.93,2.9,12.75,3.18,12.6z"/>
		<path class="st13" d="M2.5,11.18c-0.04,0.03-0.08,0.06-0.13,0.06c0,0.1,0,0.2,0,0.3c0.2-0.07,0.37-0.2,0.56-0.3
			c0.12-0.06,0.23-0.12,0.34-0.19c0-0.12,0-0.24,0-0.35C3.01,10.86,2.75,11.02,2.5,11.18z"/>
		<path class="st13" d="M2.37,11.7c0,0.1,0,0.2,0,0.3c0.26-0.1,0.48-0.27,0.72-0.4c0.06-0.03,0.12-0.07,0.18-0.1
			c0-0.12,0-0.23,0-0.35c-0.26,0.16-0.52,0.33-0.78,0.49C2.45,11.67,2.42,11.7,2.37,11.7z"/>
		<path class="st13" d="M13.03,9.94c0,0.11,0,0.22,0,0.33c0.18-0.05,0.3-0.17,0.46-0.26c0.05-0.03,0.1-0.06,0.15-0.09
			c0-0.1,0-0.2,0-0.3c-0.15,0.09-0.31,0.18-0.46,0.26C13.13,9.91,13.09,9.94,13.03,9.94z"/>
		<path class="st13" d="M13.64,8.79c-0.17,0.09-0.34,0.19-0.5,0.28c-0.04,0.02-0.08,0.06-0.13,0.05c0.03,0.09,0.05,0.19,0.06,0.29
			c0.21-0.08,0.37-0.24,0.58-0.32C13.64,8.99,13.64,8.89,13.64,8.79z"/>
		<path class="st13" d="M13.09,9.45c-0.06,0.11-0.02,0.23-0.02,0.34c0.21-0.09,0.38-0.23,0.58-0.34c0-0.1,0-0.2,0-0.3
			C13.45,9.24,13.29,9.38,13.09,9.45z"/>
		<path class="st13" d="M3.63,10.44c0,0.13,0,0.25,0,0.38c0.28-0.13,0.54-0.31,0.81-0.45c0.03-0.02,0.06-0.03,0.09-0.05
			c0-0.14,0-0.28,0-0.41c-0.1,0.06-0.21,0.13-0.31,0.19C4.02,10.21,3.84,10.36,3.63,10.44z"/>
		<path class="st13" d="M3.63,11.79c0.26-0.1,0.48-0.27,0.72-0.4c0.06-0.03,0.12-0.07,0.18-0.1c0-0.14,0-0.28,0-0.41
			c-0.24,0.15-0.49,0.3-0.73,0.45c-0.05,0.03-0.1,0.08-0.17,0.08C3.63,11.54,3.63,11.67,3.63,11.79z"/>
		<path class="st13" d="M3.63,11.94c0,0.13,0,0.25,0,0.38c0.05,0,0.09-0.03,0.13-0.06c0.26-0.15,0.51-0.29,0.77-0.44
			c0-0.14,0-0.27,0-0.41c-0.25,0.16-0.5,0.31-0.76,0.47C3.73,11.91,3.69,11.95,3.63,11.94z"/>
		<path class="st13" d="M4.53,10.77c0-0.13,0-0.26,0-0.39c-0.28,0.17-0.56,0.34-0.83,0.51c-0.02,0.01-0.04,0.02-0.07,0.02
			c0,0.12,0,0.24,0,0.36c0.16-0.04,0.29-0.15,0.43-0.23C4.22,10.96,4.38,10.86,4.53,10.77z"/>
		<path class="st13" d="M4.53,14.85c-0.14,0.09-0.27,0.17-0.41,0.26c-0.03,0.01-0.07-0.01-0.09,0.03c0.16,0,0.33,0,0.49,0
			c0-0.01,0-0.02,0-0.03C4.53,15.03,4.53,14.94,4.53,14.85z"/>
	</g>
	<g>
		<path class="st13" d="M7.48,7.1c0.12-0.07,0.22-0.16,0.3-0.27C7.65,6.9,7.52,6.97,7.39,7.04C7.42,7.06,7.45,7.08,7.48,7.1z"/>
		<path class="st13" d="M8.07,5.33c0.17-0.02,0.27-0.14,0.4-0.19C8.43,5.11,8.39,5.09,8.33,5.09C8.25,5.17,8.16,5.24,8.07,5.33z"/>
		<path class="st13" d="M7.8,7.25c0.05,0.01,0.1,0.03,0.15,0.05c0.01-0.1,0.14-0.12,0.18-0.25C8.03,7.1,7.97,7.14,7.9,7.17
			C7.87,7.2,7.82,7.21,7.8,7.25z"/>
		<path class="st13" d="M9.09,6.12c-0.07,0.05-0.14,0.09-0.22,0.2c0.1-0.05,0.16-0.08,0.22-0.11C9.09,6.18,9.09,6.15,9.09,6.12z"/>
	</g>
	<g>
		<path class="st13" d="M9.58,10.77c0.08,0.11,0.2,0.12,0.32,0.11c0.01-0.02,0.03-0.03,0.04-0.05c0.33-0.27,0.66-0.54,0.99-0.8
			c-0.01-0.01-0.01-0.02-0.02-0.03C10.47,10.25,10.03,10.51,9.58,10.77z"/>
		<path class="st13" d="M12.48,9.09c-0.03,0.07-0.09,0.1-0.14,0.14c-0.26,0.21-0.52,0.42-0.79,0.63c0.01,0.01,0.01,0.02,0.02,0.03
			c0.35-0.21,0.7-0.42,1.05-0.63C12.6,9.19,12.58,9.11,12.48,9.09z"/>
		<path class="st13" d="M11.82,10.88c0.09,0,0.18,0,0.27,0c0.01-0.01,0.02-0.02,0.03-0.03c0.06-0.09,0.13-0.18,0.21-0.31
			c-0.1,0.06-0.17,0.08-0.22,0.13C12.01,10.74,11.88,10.76,11.82,10.88z"/>
		<path class="st13" d="M12.06,9.04c-0.06,0-0.12-0.01-0.18-0.01c-0.01,0-0.03,0.01-0.04,0.01c-0.16,0.12-0.32,0.24-0.47,0.37
			c0.01,0.01,0.01,0.02,0.02,0.03C11.61,9.3,11.83,9.17,12.06,9.04z"/>
		<path class="st13" d="M11.09,10.88c0.06,0,0.12,0,0.19,0c0.02-0.02,0.04-0.03,0.05-0.05c0.04-0.04,0.08-0.07,0.12-0.11
			c0.04-0.04,0.09-0.06,0.12-0.16C11.38,10.68,11.2,10.73,11.09,10.88z"/>
		<path class="st13" d="M11.23,9.03c-0.01,0-0.02,0.01-0.02,0.01c-0.1,0.08-0.21,0.15-0.33,0.2c-0.07,0.02-0.11,0.06-0.14,0.17
			c0.23-0.14,0.43-0.25,0.63-0.37C11.32,9.04,11.27,9.03,11.23,9.03z"/>
		<path class="st13" d="M9.82,9.01C9.76,9.07,9.64,9.08,9.63,9.22C9.77,9.16,9.89,9.09,10,9.01C9.94,9.01,9.88,9.01,9.82,9.01z"/>
		<path class="st13" d="M10.44,10.88c0.03,0,0.07,0,0.1,0c0.02-0.02,0.04-0.03,0.05-0.05c0.08-0.06,0.17-0.13,0.25-0.19
			C10.7,10.71,10.54,10.74,10.44,10.88z"/>
		<path class="st13" d="M9.72,10.3c-0.11,0.02-0.17,0.08-0.24,0.11c0,0.02,0,0.05,0,0.07C9.57,10.44,9.64,10.38,9.72,10.3z"/>
	</g>
	<g>
		<path class="st4" d="M9.06,10.21c0-0.17,0-0.33,0-0.5C9.02,9.87,9.02,10.04,9.06,10.21z"/>
		<path class="st4" d="M13.09,9.45c-0.02-0.01-0.03-0.01-0.02-0.04c-0.01-0.1-0.03-0.2-0.06-0.29C13,9.1,13,9.08,12.99,9.06
			c-0.05-0.08-0.11-0.15-0.2-0.17c-0.12-0.03-0.23-0.04-0.35-0.06c-0.2,0.01-0.4-0.03-0.59,0.02c-0.05,0.02-0.08-0.03-0.12-0.03
			c-0.04,0.04-0.09,0.04-0.15,0.03c0-0.01,0-0.02-0.01-0.02c-0.15,0.01-0.31-0.03-0.46,0.02C11.07,8.87,11.04,8.82,11,8.82
			c-0.05,0-0.09,0.05-0.14,0.03c-0.21,0.03-0.42-0.02-0.62-0.03c-0.06,0-0.12,0-0.17,0c-0.12,0-0.23,0-0.35,0.01
			c-0.21,0-0.38,0.1-0.53,0.25c-0.09,0.1-0.06,0.23-0.12,0.34c0,0.02,0,0.04-0.01,0.06c0,0.08,0,0.16,0,0.24c0,0.17,0,0.33,0,0.5
			c0,0.18,0.02,0.36,0.06,0.55c0.04,0.16,0.13,0.24,0.28,0.28c0.21,0.06,0.43,0,0.63,0.05c0.33,0,0.67,0,1,0
			c0.27,0.02,0.54-0.05,0.82-0.03c0.19,0.01,0.38,0.01,0.57,0c0.21-0.01,0.4-0.07,0.52-0.25c0.09-0.13,0.05-0.28,0.06-0.43
			c0.01-0.04,0.02-0.08,0.03-0.11c0-0.11,0-0.22,0-0.33c0.03-0.04,0.02-0.1,0.03-0.15C13.07,9.68,13.03,9.56,13.09,9.45z
			 M12.59,10.86c-0.17,0.06-0.33,0.02-0.5,0.02c-0.09,0-0.18,0-0.27,0c-0.02,0-0.04,0-0.05,0c-0.16,0-0.33,0-0.49,0
			c-0.06,0-0.12,0-0.19,0c-0.02,0-0.04,0-0.05,0c-0.16,0-0.33,0-0.49,0c-0.03,0-0.07,0-0.1,0c-0.02,0-0.04,0-0.06,0
			c-0.16,0-0.32,0-0.48,0c-0.12,0.01-0.24,0.01-0.32-0.11c-0.11-0.07-0.1-0.19-0.11-0.3c0-0.02,0-0.05,0-0.07
			c-0.05-0.04-0.04-0.1-0.03-0.15c0.02-0.33,0-0.65,0-0.98C9.45,9.05,9.49,9,9.72,9c0.03,0,0.07,0,0.1,0.01c0.06,0,0.12,0,0.18,0
			c0.21-0.04,0.41,0.05,0.62,0.02c0.16,0,0.32,0,0.48,0.01c0.01,0,0.02,0,0.03-0.01c0.03,0,0.06,0.01,0.09,0.01
			c0.01,0,0.02-0.01,0.02-0.01c0.04,0,0.08,0.01,0.12,0.01c0.16,0,0.32,0,0.49,0c0.01,0,0.03-0.01,0.04-0.01c0,0,0,0,0,0
			c0.06,0,0.12,0.01,0.18,0.01c0.14,0,0.29-0.04,0.42,0.05c0.1,0.02,0.13,0.1,0.14,0.18c0.04,0.25,0.08,0.5,0.06,0.76h0
			c0,0.15,0,0.3,0.01,0.44C12.66,10.6,12.67,10.74,12.59,10.86z"/>
	</g>
</g>
</svg>
