<?xml version="1.0" encoding="utf-8"?>
<!-- Generator: Adobe Illustrator 27.1.0, SVG Export Plug-In . SVG Version: 6.00 Build 0)  -->
<svg version="1.0" id="Capa_1" xmlns="http://www.w3.org/2000/svg" xmlns:xlink="http://www.w3.org/1999/xlink" x="0px" y="0px"
	 viewBox="0 0 200 200" style="enable-background:new 0 0 200 200;" xml:space="preserve">
<style type="text/css">
	.st0{fill:#171E37;}
	.st1{fill:#38816F;}
	.st2{fill:#FFFFFF;}
</style>
<g>
	<path class="st0" d="M0.9,103.1C0.59,76.97,7.99,55.68,21.92,36.88C33.88,20.74,49.81,9.94,69.47,4.69
		C78.69,2.23,88.02,0.67,97.4,1c18.46,0.66,36.66,2.98,53.19,12.45c15.09,8.64,27.09,20.2,35.75,35.33
		c6.21,10.87,10.03,22.58,11.73,34.8c2.57,18.49,0.46,36.66-6.46,54.13c-5.32,13.41-12.82,25.43-23.43,35.27
		c-13.7,12.7-29.73,20.97-48.23,24.33c-9.2,1.67-18.5,2.1-27.73,1.46c-20.64-1.42-39.98-7.29-56.38-20.27
		c-17.55-13.89-27.96-32.34-32.55-54.25C1.65,116.42,0.68,108.62,0.9,103.1z M181.61,49.86c-0.51-0.56-1.02-1.12-1.54-1.69
		c-0.08-1.3-0.84-2.24-1.7-3.12c-0.75-0.79-1.51-1.58-2.26-2.37c0.02-1.67-1.25-2.35-2.41-3.11c-0.32-0.49-0.64-0.98-0.96-1.47
		c-1.4-2.25-3.44-3.89-5.35-5.66c-0.3-0.8-0.89-1.3-1.66-1.62c-0.64-1.33-2.12-1.54-3.14-2.37c-0.53-0.54-1.05-1.07-1.58-1.61
		c-1.01-1.29-2.29-2.12-3.93-2.35c-0.53-0.53-1.07-1.06-1.6-1.59c-0.89-1.43-2.3-1.98-3.86-2.28c-0.5-1.05-1.33-1.62-2.49-1.7
		c-2.82-2.17-5.74-4.12-9.38-4.63c-0.24-0.92-1.05-0.74-1.7-0.89c-1.27-0.7-2.54-1.41-3.81-2.11c-0.6-0.11-1.2-0.21-1.79-0.32
		c-1.41-0.85-2.89-1.49-4.58-1.41c-0.28-0.81-0.91-0.8-1.59-0.66c-1.62-0.54-3.25-1.08-4.87-1.62c-0.81-0.08-1.63-0.16-2.44-0.23
		c-1.35-1.29-3.33-0.24-4.75-1.27c-1.8-0.06-3.6-0.12-5.4-0.18c-1.75-1.5-3.78-0.6-5.69-0.67c-1.83,0-3.66,0-5.49,0
		c-5.03,0.2-10.14-1.08-15.09,0.79c-1.74-0.68-3.17,0.5-4.74,0.8c-7.65,0.53-14.53,3.77-21.34,6.75
		c-9.78,4.28-18.2,10.79-25.25,18.84c-5.04,5.76-10.49,11.3-13.41,18.61c-0.43,1.14-2.26,1.58-1.65,3.25
		c-1.1,1.99-2.54,3.84-2.4,6.3c-0.8,1.2-1.94,2.24-1.77,3.88c-1.38,1.35-1.48,3.26-2.14,4.93c0.29,1.14-1.45,1.73-0.82,2.98
		c-0.47,1.55-1.18,3.05-1.01,4.73c-0.95,0.58-0.53,1.58-0.72,2.38c-0.75,3.44-1.5,6.88-2.24,10.33c0.01,0.8,0.03,1.61,0.04,2.41
		c-0.86,3.2-1.37,6.4-0.16,9.63c-0.94,1.16-0.92,2.48-0.66,3.84c0,1.35,0,2.7,0,4.05c-0.04,0.88-0.57,1.88,0.62,2.45
		c0.08,1.27,0.16,2.54,0.24,3.81c-0.51,1.23-0.07,2.25,0.72,3.19c0.03,1.13-0.66,2.41,0.67,3.28c0.05,0.76,0.1,1.52,0.14,2.29
		c0.81,2.6,1.62,5.2,2.43,7.81c-0.39,0.82,0.62,1.05,0.71,1.66c0.49,1.09,0.46,2.41,1.46,3.27c-0.2,1.17,0.18,2.17,0.92,3.06
		c0.71,1.04,1.42,2.07,2.13,3.11c0.18,0.67-0.06,1.54,0.88,1.86c0.12,1.24,0.69,2.24,1.62,3.05c-0.04,0.72-0.04,1.42,0.82,1.7
		c1.74,1.95,2.52,4.62,4.71,6.24c0.31,0.5,0.62,1,0.93,1.5c4.37,5.6,9.64,10.3,14.96,14.95c1.5,0.51,1.95,2.61,3.84,2.54
		c2.08,2.07,4.52,3.61,7.21,4.77c0.45,1.01,1.14,1.64,2.34,1.5c4.16,2.81,8.71,4.8,13.46,6.35c0.51,1.11,1.53,0.7,2.38,0.79
		c1.42,0.94,2.95,1.57,4.67,1.62c0.83,1.13,2.33,0.67,3.33,1.38c1.64-0.17,2.96,1.41,4.68,0.83c0.77,0.4,1.38,1.29,2.45,0.78
		c8.42,2.4,17.11,2.06,25.72,2.47c0.96,0.05,2.14,0.5,2.86-0.68c2.09-0.54,4.42,0.77,6.38-0.83c3.75-0.48,7.63-0.36,11.06-2.38
		c2.42-0.04,4.79-0.24,6.41-2.4c1.03-0.05,2.01-0.02,3.06-0.41c11.04-4.13,20.52-10.72,28.83-18.9c2.49-2.45,5.67-4.69,6.7-8.44
		c1.09-0.82,2.06-1.74,2.5-3.09c0.48-0.42,1.11-0.75,1.41-1.27c3.36-5.84,6.91-11.62,9.17-17.98c1.72-4.85,4.21-9.53,4.31-14.87
		c0.73-0.89,1.19-1.86,0.91-3.05c1.5-1.42,0.61-3.18,0.68-4.8c0.27-0.81,1.31-1.38,0.79-2.44c0.86-5,2.18-9.95,1.58-15.1
		c0-0.77,0-1.55,0-2.32c0-2.88,0-5.76,0-8.64c0.21-0.64-0.21-0.87-0.69-1.06c-0.24-8.57-2.56-16.61-6.1-24.35
		c-0.25-0.57-0.03-1.38-0.85-1.64c-0.47-2.43-1.4-4.62-3.21-6.37c-0.02-0.71,0.01-1.44-0.89-1.68
		C183.09,51.7,182.43,50.74,181.61,49.86z"/>
	<g>
		<g>
			<path class="st1" d="M193.35,114.11c0.86-5,2.18-9.95,1.58-15.1c-7.92,4.44-15.86,8.85-23.74,13.35
				c-1.25,0.71-2.39,1.58-3.84,1.86c-2.21,2.31-5.05,3.59-7.92,4.81c-2.14,2.08-4.76,3.28-7.77,3.85c2.6-1.56,5.2-3.13,7.8-4.69
				c2.62-1.64,5.23-3.29,7.85-4.93c7.89-4.99,15.76-10,23.69-14.93c1.19-0.74,2.41-1.63,3.95-1.63c0-2.88,0-5.76,0-8.64
				c-2.98,0.54-5.02,3.08-8.11,3.5c2.36-1.7,4.56-3.64,7.42-4.56c-0.24-8.57-2.56-16.61-6.1-24.35
				c-6.79,4.02-13.57,8.06-20.39,12.03c-1.32,0.77-2.65,1.74-4.36,1.37c7.97-5.02,15.93-10.03,23.9-15.05
				c-0.47-2.43-1.4-4.62-3.21-6.37c-8.36,4.8-16.71,9.6-25.08,14.38c-1.12,0.64-2.35,1.1-3.53,1.64c-2.81,2.46-5.89,4.43-9.52,5.45
				c2.82-2.62,6.14-4.49,9.55-6.21c9.1-5.87,18.17-11.77,27.7-16.93c-0.1-1.25-0.76-2.21-1.58-3.09c-9.33,5.29-18.66,10.59-28,15.88
				c-1.46,0.83-2.93,1.66-4.39,2.49c-3.13,1.68-5.7,4.53-9.59,4.66c-0.98,0.87-2.02,1.64-3.11,2.34c1.08-0.71,2.13-1.47,3.11-2.34
				c2.86-1.89,5.52-4.11,8.77-5.36c10.39-6.73,20.72-13.56,31.68-19.36c-0.08-1.3-0.84-2.24-1.7-3.12
				c-7.57,4.25-15.15,8.48-22.69,12.77c-7.45,4.23-14.85,8.53-22.28,12.8c-2.41,1.36-4.49,3.31-7.26,4.04
				c1.59,1.26,3.18,2.53,4.77,3.79c1.56,1.33,3.13,2.65,4.69,3.98c1.72-1.06,3.45-2.12,5.17-3.18c-1.72,1.06-3.45,2.12-5.17,3.18
				c2.12,2.65,4.5,5.05,7.16,7.15c1.01,1.37,1.98,2.77,3.04,4.09c4.54,5.69,4.26,8.54-0.9,14.03c-5.26,5.59-11.99,9.29-17.72,14.24
				c-7.81,6.75-16.32,12.63-23.71,19.93c-7.43,7.34-15.32,14.22-25.22,18.29c-3.69,1.52-7.18,2.42-10.69-0.23
				c-8.5,5.08-17,10.16-25.49,15.23c2.08,2.07,4.52,3.61,7.21,4.77c10.33-5.97,20.66-11.94,30.99-17.91
				c0.2,0.34,0.39,0.68,0.59,1.02c-9.75,6.13-19.49,12.26-29.24,18.39c4.16,2.81,8.71,4.8,13.46,6.35
				c3.67-3.55,8.45-5.34,12.76-7.81c3.88-2.23,7.44-5.11,11.78-6.52c3.2-2.68,7.02-4.24,10.78-5.91c-3.05,2.34-6.05,4.76-9.77,6
				c-6.99,5.23-14.72,9.31-21.96,14.15c-0.42,0.28-0.82,0.59-1.22,0.89c1.42,0.94,2.94,1.57,4.67,1.62c3.43-3.28,7.9-4.86,11.85-7.3
				c5.17-3.2,10.46-6.21,15.73-9.25c0.38-0.22,0.99-0.03,2.56-0.03c-8.2,5.21-15.59,9.88-22.93,14.6c-1.44,0.92-3.31,1.41-3.88,3.36
				c1.64-0.17,2.97,1.41,4.68,0.83c3.26-3.05,7.63-4.33,11.15-6.97c2.45-1.34,4.89-2.68,7.34-4.02c0.14,0.25,0.28,0.49,0.42,0.74
				c-2.6,1.57-5.19,3.14-7.79,4.71c-2.74,2.31-6.74,2.9-8.67,6.32c8.42,2.4,17.11,2.06,25.72,2.47c0.96,0.05,2.14,0.5,2.86-0.68
				c3.81-3.54,8.56-5.6,13.01-8.09c2.01-1.12,3.63-3.41,6.81-2.83c-4.47,3.77-9.69,5.98-13.45,10.09c3.75-0.48,7.63-0.36,11.06-2.38
				c2.14-2.66,5.33-3.41,8.24-5.14c0.19,1.98-1.68,1.59-1.83,2.73c1.03-0.05,2.01-0.02,3.06-0.41c11.04-4.13,20.52-10.72,28.83-18.9
				c2.49-2.45,5.67-4.69,6.7-8.44c-2.13,0.13-3.21,2.8-6.3,2.16c3.2-1.97,5.23-4.78,8.81-5.25c0.48-0.42,1.11-0.75,1.41-1.27
				c3.36-5.84,6.91-11.62,9.17-17.98c1.72-4.85,4.21-9.53,4.3-14.87c-7.07,3.98-14.13,7.95-21.2,11.93
				c-2.65,1.76-5.21,3.69-8.41,4.4c2.33-2.04,4.65-4.07,7.62-5.11c7.46-5.03,14.87-10.15,22.9-14.28c1.5-1.42,0.61-3.17,0.68-4.8
				c-6.54,3.69-13.08,7.38-19.61,11.08c-2.64,1.76-5.21,3.65-9.21,4.9c2.96-2.82,5.82-4.03,8.37-5.7
				C179.19,122.59,185.77,117.51,193.35,114.11z M185.88,132.91c-2.49,1.44-4.99,2.88-7.48,4.33c-0.17-0.3-0.34-0.6-0.51-0.89
				C180.45,135.01,182.63,133.01,185.88,132.91z"/>
			<path class="st1" d="M108.05,46.08c-3.47,2.11-6.95,4.23-10.42,6.34c1.23,1.67,2.63,3.13,4.61,3.92
				c2.87-1.79,5.81-3.46,8.66-5.29c-2.84,1.83-5.79,3.5-8.66,5.29c1.28,1.76,3.11,2.82,4.92,3.91c1.31-0.79,2.62-1.59,3.93-2.38
				c3.47-3.39,7.72-5.57,11.96-7.79c10.3-7.15,21.23-13.3,31.79-20.04c1.97-1.25,3.81-2.71,6.17-3.2c-1.01-1.29-2.29-2.12-3.93-2.35
				c-9.74,5.61-19.49,11.22-29.23,16.82c-4,2.06-7.25,5.56-11.98,6.21c3.7-2.34,7.4-4.69,11.1-7.03
				c9.5-5.86,19.01-11.73,28.51-17.59c-0.89-1.43-2.3-1.98-3.86-2.28c-9.85,6.49-20.34,11.9-30.46,17.94
				C116.83,41.14,112.42,43.58,108.05,46.08z"/>
			<path class="st1" d="M112.57,64.25L112.57,64.25c2.48,2.75,5.64,4.59,8.76,6.49c1.57-1.73,3.5-2.93,5.49-4.06
				c-1.99,1.13-3.92,2.33-5.49,4.06c1.05,1.38,2.4,2.38,3.98,3.07c2.38-1.37,4.76-2.74,7.14-4.11c14.29-8.95,28.59-17.9,42.89-26.84
				c0.21-0.13,0.51-0.12,0.77-0.17c0.02-1.67-1.25-2.35-2.41-3.11c-8.68,5.07-17.36,10.14-26.04,15.22
				c-4.5,2.38-8.23,6.24-13.56,6.99c-0.92,0.95-1.95,1.74-3.04,2.45c1.09-0.71,2.12-1.5,3.04-2.45c4.19-2.66,8.21-5.59,12.72-7.71
				c8.46-5.61,17.06-11.01,25.93-15.96c-1.4-2.25-3.44-3.89-5.35-5.66c-9.77,5.58-19.55,11.16-29.32,16.74
				c-3.09,1.73-5.68,4.49-9.53,4.69c2.89-1.84,5.5-4.13,8.75-5.38c9.27-6.22,18.81-12.02,28.44-17.66
				c-0.64-1.33-2.12-1.54-3.14-2.37c-12.9,7.46-25.8,14.91-38.71,22.37c-4.19,2.48-8.04,5.59-12.8,7.05
				c-1.31,0.79-2.62,1.59-3.93,2.38C108.71,61.93,110.35,63.48,112.57,64.25z M128.53,65.73c0.57-0.32,1.14-0.64,1.69-0.98
				C129.66,65.08,129.1,65.41,128.53,65.73z"/>
			<path class="st1" d="M64.45,156.86c-3.25-8.93,3.73-12.67,8.91-17.13c7.12-6.13,14.45-12.03,21.76-17.93
				c7.49-6.06,15-12.09,22.63-17.97c3.88-2.99,3.9-3.4,0.11-6.49c-9.51-7.75-18.87-15.67-28.35-23.46
				c-6.65-5.46-13.32-10.9-20.11-16.17c-4.68-3.64-6.9-9.74-4.71-14.01c1.57-3.06,6.79-6.05,10.1-5.52
				c7.13,1.15,13.57,3.52,17.75,10.07c0.92,1.45,2.82,2.27,4.26,3.38c3.64-1.82,6.54-4.87,10.41-6.29
				c13.77-9.13,27.76-17.91,41.92-26.41c-2.82-2.17-5.74-4.12-9.38-4.63c-5.35,4.17-11.52,6.97-17.28,10.47
				c-2.67,1.62-5.41,3.11-8.11,4.67c-3.64,2.38-7.27,4.79-11.63,5.84c3.59-2.22,7.18-4.44,10.77-6.66
				c8.18-5.07,16.37-10.14,24.55-15.21c-1.27-0.7-2.54-1.41-3.81-2.11c-2.78,2.26-5.83,4.02-9.39,4.89
				c2.53-1.74,5.06-3.47,7.59-5.21c-1.41-0.85-2.89-1.49-4.58-1.42c-4.75,3.52-9.86,6.4-15.53,8.31c4.65-2.99,9.29-5.98,13.94-8.97
				c-1.62-0.54-3.25-1.08-4.87-1.62c-5.21,4.56-11.64,6.97-17.38,10.58c-0.18-0.29-0.35-0.59-0.53-0.88
				c5.16-3.31,10.31-6.62,15.47-9.93c-1.35-1.29-3.33-0.24-4.75-1.27c-8.14,4.72-16.27,9.43-24.41,14.15
				c-2.65,1.78-5.32,3.53-8.42,4.45c2.21-2.23,4.75-3.95,7.49-5.38c6.2-4,12.41-8,18.6-12.02c0.52-0.34,0.9-0.91,1.35-1.37
				c-1.75-1.5-3.78-0.6-5.69-0.67c-7.77,4.89-15.64,9.57-24.06,13.27c5.65-5.25,12.8-8.26,18.56-13.27
				c-5.03,0.2-10.14-1.08-15.09,0.79c-3.54,2.53-7.18,4.86-11.47,5.93c2.24-1.71,4.48-3.42,6.72-5.13
				c-7.65,0.53-14.53,3.77-21.34,6.75c-9.78,4.28-18.2,10.79-25.25,18.84c-5.04,5.76-10.49,11.3-13.41,18.61
				c4.18-2.19,8.35-4.37,12.53-6.56c0.17,0.3,0.35,0.6,0.52,0.9c-4.97,2.87-8.99,7.17-14.7,8.91c-1.1,1.99-2.54,3.84-2.4,6.3
				c5.49-2.93,10.98-5.86,16.46-8.79c2.37-2.25,5.41-3.23,8.55-4.08c-2.58,1.61-5.16,3.21-7.74,4.82
				c-6.35,3.98-12.7,7.95-19.04,11.93c-1.38,1.35-1.48,3.26-2.14,4.93c4.33-0.7,7.53-3.68,11.23-5.63c0.84-0.44,1.44-1.09,2.97-0.3
				c-5.31,2.87-9.61,6.76-15.02,8.9c-0.47,1.55-1.18,3.05-1.01,4.73c4.01-2.08,8.02-4.17,12.03-6.25c0.15,0.24,0.3,0.48,0.44,0.73
				c-4.4,2.64-8.8,5.28-13.19,7.91c-0.75,3.44-1.5,6.88-2.24,10.33c6.54-2.9,12.37-7.07,18.69-10.38c1.98-1.04,3.64-2.83,6.21-2.64
				C21.73,81.72,13.8,87.43,5.1,91.91c-0.86,3.2-1.37,6.4-0.16,9.63c10.76-6.15,21.5-12.33,32.3-18.41c2.9-1.63,5.56-3.74,8.81-4.72
				c2.47-2.11,5.27-3.57,8.62-4.06c-2.6,1.59-5.2,3.19-7.8,4.78c-12.94,8.13-25.88,16.25-38.8,24.4c-1.21,0.76-2.27,1.74-3.79,1.85
				c0,1.35,0,2.7,0,4.05c8.95-4.07,17.02-9.7,25.65-14.35c1.13-0.61,2.11-1.47,3.44-1.63c3.66-2.99,8.04-4.68,11.97-7.2
				c0.17,0.28,0.35,0.57,0.52,0.85c-3.9,2.35-7.79,4.71-11.69,7.06c-9.15,5.68-18.3,11.36-27.46,17.02
				c-0.54,0.33-1.21,0.47-1.81,0.7c0.08,1.27,0.16,2.54,0.24,3.81c8.36-3.93,15.98-9.16,24.1-13.52c4.32-2.32,8.28-5.3,12.89-7.1
				c3.72-2.98,7.95-5.04,12.62-6.36c-3.95,2.34-7.9,4.69-11.84,7.03c-12.35,7.71-24.7,15.42-37.05,23.13
				c0.03,1.13-0.66,2.41,0.67,3.28c8.4-3.99,16.05-9.3,24.24-13.65c0.9-0.48,1.79-0.97,2.69-1.46c2.89-1.62,5.77-3.24,8.66-4.86
				c2.55-1.91,5.29-3.45,8.3-4.48c-2.22,1.89-4.4,3.82-7.3,4.55c-2.87,2.61-6.37,4.23-9.68,6.14c-7.97,4.98-15.94,9.98-23.93,14.92
				c-0.85,0.53-1.89,0.75-2.83,1.11c0.81,2.6,1.62,5.21,2.44,7.81c8.03-4.71,16.05-9.42,24.1-14.1c0.76-0.44,1.68-0.63,2.52-0.93
				c2.53-2.05,5.28-3.65,8.44-4.48c-2.28,1.88-4.49,3.84-7.43,4.57c-5.77,4.6-12.38,7.89-18.57,11.83
				c-2.69,1.72-5.26,3.72-8.34,4.77c0.49,1.09,0.46,2.41,1.46,3.27c10.78-6.17,21.55-12.37,32.36-18.51
				c4.72-2.68,9.51-5.21,14.27-7.81c2.36-2.4,5.41-3.42,8.71-4.05c-2.62,1.6-5.23,3.19-7.85,4.79c-15.03,9.4-30.05,18.8-45.09,28.18
				c-0.42,0.26-0.98,0.31-1.47,0.45c0.71,1.04,1.42,2.07,2.13,3.11c11.11-6.33,21.95-13.14,33.35-18.97
				c3.88-2.7,7.84-5.24,12.61-6.37c-3.94,2.36-7.89,4.73-11.83,7.09c-9.82,6.05-19.63,12.12-29.45,18.15
				c-1.21,0.74-2.53,1.31-3.8,1.96c0.12,1.24,0.69,2.24,1.62,3.05c7.56-4.26,15.12-8.53,22.68-12.79c2.51-1.41,5.05-2.79,7.81-3.73
				c-9.88,6.13-19.19,13.13-29.68,18.21c1.74,1.95,2.52,4.62,4.71,6.24c7.68-4.37,15.35-8.74,23.03-13.11
				c0.2,0.34,0.4,0.69,0.6,1.03c-7.57,4.52-15.13,9.05-22.7,13.57c4.37,5.6,9.64,10.3,14.96,14.95c1.5,0.51,1.95,2.61,3.84,2.54
				c8.5-5.08,17-10.16,25.49-15.23C66.53,158.92,65.49,157.89,64.45,156.86z"/>
		</g>
	</g>
	<path class="st0" d="M67.56,159.95c-1.04-1.03-2.08-2.06-3.11-3.09c-3.25-8.93,3.73-12.67,8.91-17.13
		c7.12-6.13,14.45-12.03,21.76-17.93c7.49-6.06,15-12.09,22.63-17.97c3.88-2.99,3.9-3.4,0.11-6.49
		c-9.51-7.75-18.87-15.67-28.35-23.46c-6.65-5.46-13.32-10.9-20.11-16.17c-4.68-3.64-6.9-9.74-4.71-14.01
		c1.57-3.06,6.79-6.05,10.1-5.52c7.13,1.15,13.57,3.52,17.75,10.07c0.92,1.45,2.82,2.27,4.26,3.38c0.28,0.26,0.56,0.53,0.84,0.79
		c1.23,1.67,2.63,3.13,4.61,3.92c1.28,1.76,3.11,2.82,4.92,3.91c1.55,1.68,3.19,3.23,5.41,4c2.48,2.75,5.64,4.59,8.76,6.49
		c1.05,1.38,2.4,2.38,3.98,3.07c0.28,0.29,0.56,0.57,0.83,0.86c1.59,1.26,3.18,2.53,4.77,3.79c1.56,1.33,3.13,2.65,4.69,3.98
		c2.12,2.65,4.5,5.05,7.16,7.15c1.01,1.37,1.98,2.77,3.04,4.09c4.54,5.69,4.26,8.54-0.9,14.03c-5.26,5.59-11.99,9.29-17.72,14.24
		c-7.81,6.75-16.32,12.63-23.71,19.93c-7.43,7.34-15.32,14.22-25.22,18.29C74.56,161.7,71.08,162.6,67.56,159.95z M142.06,96.54
		c0.01-0.68-0.11-1.28-0.84-1.55c0.03-1.66-1.25-2.31-2.35-3.11c-0.42-1.05-1.2-1.56-2.32-1.56c-0.07-2.01-1.74-2.94-3-3.93
		c-4.89-3.84-9.96-7.46-14.92-11.22c-3.15-2.39-6.78-4.36-9.62-6.86c-3.97-3.51-8.3-6.56-12.25-10.08
		c-3.61-3.22-7.34-6.29-11.01-9.44c-2.6-2.23-5.02-4.7-7.83-6.62c-1.38-0.94-3.09-1.59-5.27-1.22c-4.16,0.71-5.25,8.23-2.27,11.43
		c1.64,1.76,4.15,2.95,5.61,4.51c7.5,8.05,16.83,13.85,25,21.06c7.47,6.59,15.55,12.57,23.32,18.87c2.07,1.68,1.99,2.87,0,4.54
		c-5.88,4.94-11.53,10.14-17.48,14.99c-7.96,6.48-15.14,13.89-23.89,19.47c-4.56,2.91-8.93,6.39-12.42,10.65
		c-1.88,2.3-3.18,4.98-1.28,8.03c0.32,1.2,1.31,1.81,2.21,2.49c2.52,3.68,5.56,1.85,7.88,0.19c4.83-3.47,9.26-7.48,13.92-11.19
		c8.49-6.75,17.04-13.44,25.55-20.16c3.71-2.93,7.23-6.08,10.83-9.15c4.27-3.64,8.53-7.17,11.57-11.95c1.02-1.18,1.85-2.42,1.47-4.1
		C142.58,99.24,143.41,97.73,142.06,96.54z"/>
	<path class="st2" d="M141.19,104.72c-3.04,4.78-7.3,8.31-11.57,11.95c-3.59,3.06-7.12,6.21-10.83,9.15
		c-8.51,6.73-17.06,13.41-25.55,20.16c-4.66,3.71-9.09,7.72-13.92,11.19c-2.32,1.67-5.36,3.49-7.88-0.19
		c5.75-4.1,11.5-8.19,17.25-12.29c-0.16-0.28-0.32-0.56-0.48-0.85c-6.33,3.55-12.65,7.1-18.98,10.65c-1.89-3.04-0.6-5.73,1.28-8.03
		c3.49-4.26,7.86-7.75,12.42-10.65c8.76-5.58,15.93-12.99,23.89-19.47c5.95-4.84,11.6-10.05,17.48-14.99c1.99-1.68,2.07-2.87,0-4.54
		c-7.78-6.29-15.85-12.27-23.32-18.87c-8.17-7.21-17.5-13.01-25-21.06c-1.45-1.56-3.97-2.75-5.61-4.51
		c-2.98-3.2-1.89-10.72,2.27-11.43c2.18-0.37,3.89,0.28,5.27,1.22c2.81,1.92,5.23,4.39,7.83,6.62c3.67,3.15,7.4,6.23,11.01,9.44
		c3.95,3.52,8.28,6.57,12.25,10.08c2.84,2.51,6.46,4.47,9.62,6.86c4.96,3.76,10.03,7.38,14.92,11.22c1.26,0.99,2.92,1.92,3,3.93
		c-1.62,2.39-4.8,3.26-6.55,7.05c3.52-2.17,6.19-3.83,8.87-5.48c1.1,0.8,2.39,1.46,2.35,3.11c-2.43,1.22-4.62,2.76-7.08,4.93
		c3.49-0.18,5.16-3.07,7.93-3.38c1.35,1.19,0.52,2.7,0.6,4.08c-6.59,2.84-11.91,7.58-17.75,11.59c2.34,0.31,3.9-1.19,5.69-2.1
		C134.13,108.32,137.1,105.42,141.19,104.72z"/>
	<path class="st1" d="M69.23,154.48c6.33-3.55,12.65-7.1,18.98-10.65c0.16,0.28,0.32,0.56,0.48,0.85
		c-5.75,4.1-11.5,8.19-17.25,12.29C70.54,156.3,69.55,155.69,69.23,154.48z"/>
	<path class="st1" d="M141.19,104.72c-4.09,0.7-7.06,3.6-10.59,5.39c-1.79,0.91-3.35,2.41-5.69,2.1c5.84-4,11.16-8.75,17.75-11.59
		C143.05,102.29,142.21,103.54,141.19,104.72z"/>
	<path class="st1" d="M138.87,91.88c-2.68,1.65-5.35,3.31-8.87,5.48c1.75-3.79,4.92-4.66,6.55-7.05
		C137.67,90.32,138.44,90.83,138.87,91.88z"/>
	<path class="st1" d="M142.06,96.54c-2.77,0.31-4.44,3.2-7.93,3.38c2.46-2.17,4.66-3.71,7.08-4.93
		C141.96,95.26,142.08,95.86,142.06,96.54z"/>
</g>
</svg>
