<?xml version="1.0" encoding="utf-8"?>
<!-- Generator: Adobe Illustrator 27.1.0, SVG Export Plug-In . SVG Version: 6.00 Build 0)  -->
<svg version="1.0" id="Capa_1" xmlns="http://www.w3.org/2000/svg" xmlns:xlink="http://www.w3.org/1999/xlink" x="0px" y="0px"
	 viewBox="0 0 500 216.21" style="enable-background:new 0 0 500 216.21;" xml:space="preserve">
<style type="text/css">
	.st0{fill:#F4D289;}
</style>
<g>
	<g>
		<g>
			<path class="st0" d="M37.03,6.92c28.05,1.41,56.26,1.53,84.36,1.88c28.12,0.34,56.25,0.54,84.37,0.6
				c55.93,0.11,111.88-0.44,167.79-1.53c31.59-0.61,63.2-1.3,94.76-2.41c1.97-0.07,1.98-2.52,0-2.47
				C412.08,4.5,355.87,5.9,299.62,6.49c-55.93,0.59-111.87,0.66-167.8,0.17c-31.58-0.28-63.2-1.21-94.79-0.96
				C36.05,5.71,36.06,6.87,37.03,6.92L37.03,6.92z"/>
		</g>
		<g>
			<path class="st0" d="M38.42,11.98c-3.74-2.48-8.5-2.13-12.61-0.33c-4.99,2.2-7.61,6.39-9.07,10.65
				c-1.78,5.21-2.45,10.73-3.31,16.08c-0.96,5.9-1.73,11.83-2.31,17.76c-2.31,23.7-1.36,47.68,2.43,71.25
				c0.85,5.3,1.26,11.1,3.62,16.14c1.98,4.22,5.79,7.24,10.95,8.98c5.01,1.69,10.5,2.15,15.86,2.47c7.45,0.45,14.91,0.81,22.37,1.12
				c29.53,1.23,59.12,1.45,88.68,0.67c33.6-0.89,67.14-3.07,100.48-6.51c2.55-0.26,2.58-3.52,0-3.26
				c-55.89,5.79-112.31,8.01-168.64,6.66c-14-0.34-27.99-0.89-41.96-1.68c-5.42-0.31-11.13-0.64-16.12-2.51
				c-5.5-2.06-8.11-5.81-9.32-10.46c-2.83-10.8-3.93-22.09-4.88-33.09c-0.96-11.13-1.26-22.3-0.9-33.45
				c0.4-12.63,1.58-25.26,3.58-37.79c0.88-5.5,1.32-11.72,4.73-16.67c3.1-4.52,9.76-7.7,16.16-5.69
				C38.4,12.42,38.62,12.12,38.42,11.98L38.42,11.98z"/>
		</g>
		<g>
			<path class="st0" d="M256.21,151.65c0.77-1.28,0.54-2.55,1.81-3.61c-0.81-0.38-1.63-0.76-2.44-1.14
				c-2.91,10.48-6.39,20.85-9.35,31.32c-2.95,10.44-5.29,21.14-4.29,31.89c0.18,1.92,3.28,2.25,4.11,0.45
				c4.85-10.51,12.6-20.34,20.47-29.52c4.57-5.33,9.43-10.51,14.74-15.37c4.4-4.03,9.13-8.01,14.58-11.15
				c5.95-3.42,13.06-4.61,20.17-5.57c10.25-1.38,20.71-1.63,31.09-1.66c10.6-0.02,21.19,0.26,31.79,0.17
				c8.11-0.07,16.16-0.69,24.26-0.91c14.75-0.4,29.85-0.17,44.23-3.2c6.45-1.36,12.86-3.49,17.89-7.09c5.23-3.75,7.96-9,9.41-14.42
				c3.7-13.83,1.11-28.5-0.74-42.38c-0.68-5.12-1.6-10.32-1.46-15.47c0.11-3.71,0.53-7.42,0.86-11.11
				c0.88-9.82,1.84-19.78,0.73-29.61c-0.68-6-2.33-17.17-11.67-18.67c-2.14-0.34-3.86,0.4-5.88,0.71c-1.6,0.25-0.92,2.22,0.67,1.97
				c2.78-0.43,6.44,1.62,7.91,3.33c2.48,2.91,3.37,6.7,3.94,10.13c1.61,9.54,0.73,19.37-0.1,28.93c-0.35,4.02-0.78,8.04-1.04,12.07
				c-0.26,4.13,0.15,8.21,0.65,12.31c1.68,13.92,4.66,28.08,2.81,42.09c-0.72,5.49-2.29,11.65-6.94,15.92
				c-4.31,3.95-10.42,6.2-16.59,7.64c-13.94,3.25-28.78,3.07-43.16,3.43c-7.69,0.19-15.34,0.81-23.03,0.94
				c-10.29,0.17-20.58-0.11-30.86-0.17c-10.38-0.06-20.81,0.06-31.11,1.13c-7.57,0.79-15.99,1.69-22.77,4.74
				c-5.33,2.4-9.93,5.84-14.15,9.35c-5.24,4.37-10,9.11-14.5,13.98c-8.8,9.52-16.91,19.72-23.12,30.5
				c-1.15,1.99-2.22,4.01-3.13,6.08c1.37,0.15,2.74,0.3,4.11,0.45c-1.19-10.68,0.89-21.38,3.76-31.79
				c2.82-10.24,6.77-20.38,8.51-30.8c0.17-1.03-1.35-2.13-2.44-1.14c-1.79,1.62-0.73,2.89-1.21,4.78
				C254.58,151.83,255.79,152.35,256.21,151.65L256.21,151.65z"/>
		</g>
		<g>
			<path class="st0" d="M20.93,15.89c2.48-2.72,5.72-4.91,9.49-6.4c1.84-0.73,3.81-1.3,5.8-1.7c1.73-0.35,3.54-0.37,5.18-0.95
				c0.87-0.31,0.53-1.35-0.25-1.54c-3.81-0.93-9.11,1-12.37,2.51c-3.86,1.8-7.09,4.29-9.54,7.28C18.54,15.95,20.2,16.69,20.93,15.89
				L20.93,15.89z"/>
		</g>
		<g>
			<path class="st0" d="M457.15,4.15c7.47-0.85,14.54,1.94,19.65,6.18c5.5,4.57,8.35,10.42,9.64,16.63
				c1.38,6.69,1.03,13.54,0.87,20.29c-0.16,7.42-0.29,14.84-0.39,22.26c-0.21,14.43-0.14,28.87-0.67,43.3
				c-0.42,11.61-2.29,24.43-14.08,32.38c-5.69,3.83-12.81,6.04-19.89,7.58c-8.13,1.76-16.55,2.84-24.9,3.63
				c-17.97,1.71-36.22,1.78-54.2,0.17c-27.64-2.48-61.37-9.27-83.31,9c-9.42,7.84-14.67,18.1-21.31,27.44
				c-3.3,4.65-6.99,9.3-11.85,13.02c-3.14,2.41-8.89,4-13.16,2.85c-1.62-0.44-2.89-1.4-2.77-2.87c0.15-1.95-3.64-1.95-3.78,0
				c-0.33,4.35,3.4,6.61,8.57,6.85c5.42,0.25,11.06-1.53,14.87-4.6c10.12-8.15,15.56-19.07,22.7-28.85
				c3.58-4.89,7.66-9.58,13.02-13.33c5.79-4.04,12.91-6.54,20.37-7.79c15.53-2.61,31.8-0.38,47.3,1.29
				c18.7,2.01,37.42,2.73,56.24,1.35c9.15-0.67,18.29-1.72,27.26-3.27c7.6-1.32,15.23-3.14,21.98-6.32c6.6-3.11,12-7.58,15.38-13.12
				c3.34-5.47,4.78-11.49,5.48-17.51c0.8-6.85,0.61-13.76,0.67-20.63c0.06-7.92,0.12-15.85,0.17-23.77
				c0.06-7.92,0.13-15.85,0.13-23.77c0-7.31,0.35-14.7-0.67-21.98c-1.63-11.66-8.56-24.43-24.15-27.46
				c-3.16-0.61-6.38-0.63-9.56-0.11C455.78,3.14,456.21,4.26,457.15,4.15L457.15,4.15z"/>
		</g>
		<g>
			<path class="st0" d="M19.02,149.92c1.31,4.48,6.28,8.4,10.58,11.26c4.73,3.14,10.12,5.52,15.83,7.3
				c14.07,4.38,29.47,4.52,44.34,4.09c33.36-0.96,66.72-2.29,100.07-3.48c9.48-0.34,18.95-0.67,28.43-1.01
				c9.25-0.33,18.78-0.18,27.95-1.21c2.07-0.23,1.43-2.73-0.47-2.81c-7.99-0.32-16.17,0.41-24.16,0.7
				c-8.21,0.3-16.43,0.59-24.64,0.89c-16.11,0.58-32.22,1.17-48.33,1.75c-16.27,0.59-32.54,1.2-48.8,1.82
				c-15.26,0.57-30.98,1.5-45.99-1.33c-6.88-1.3-13.48-3.46-19.38-6.6c-2.87-1.52-5.54-3.26-7.92-5.25
				c-2.44-2.05-4.27-4.45-6.64-6.52C19.51,149.2,18.91,149.53,19.02,149.92L19.02,149.92z"/>
		</g>
		<g>
			<path class="st0" d="M255.46,200.1c-2.7,1.55-4.03,3.42-5.49,5.75c-0.47,0.75,0.79,1.33,1.39,0.65c2.08-2.33,3.39-5.16,4.88-7.76
				c1.4-2.44,3.13-4.92,3.94-7.53c0.25-0.8-1.03-1.17-1.59-0.54c-2.07,2.33-3.34,5.19-4.82,7.78c-1.4,2.44-3.08,4.93-3.88,7.55
				c0.53,0.06,1.05,0.11,1.58,0.17c0.17-2.3,2.11-4.42,4.15-5.91C255.73,200.19,255.58,200.03,255.46,200.1L255.46,200.1z"/>
		</g>
		<g>
			<path class="st0" d="M263.74,200.34c1.53-8.02,5.12-15.52,9.29-22.86c0.31-0.54-0.57-0.96-1-0.47
				c-5.97,6.77-8.85,14.95-9.82,23.16C262.13,200.87,263.61,201.04,263.74,200.34L263.74,200.34z"/>
		</g>
		<g>
			<path class="st0" d="M273.14,188.03c1.82-3.49,3.68-6.97,5.46-10.48c1.72-3.39,4.04-7.01,4.71-10.64
				c0.11-0.6-0.76-0.93-1.22-0.41c-2.64,2.96-4.06,6.8-5.75,10.16c-1.82,3.61-3.53,7.27-5.3,10.9
				C270.52,188.63,272.61,189.05,273.14,188.03L273.14,188.03z"/>
		</g>
		<g>
			<path class="st0" d="M288.73,171.38c0.75-3.06,1.81-6.2,1.96-9.32c0.03-0.67-1.15-0.74-1.4-0.15c-1.23,2.9-1.66,6.07-2.32,9.08
				C286.77,171.91,288.5,172.31,288.73,171.38L288.73,171.38z"/>
		</g>
		<g>
			<path class="st0" d="M296.5,163.54c-0.32-4.26,1.8-8.45,5.42-11.54c0.87-0.74-0.4-1.68-1.35-1.09
				c-4.83,3.04-7.01,7.74-6.34,12.63C294.38,164.69,296.59,164.74,296.5,163.54L296.5,163.54z"/>
		</g>
		<g>
			<path class="st0" d="M307.13,160.7c2.75-4.46,6.23-9,7.85-13.84c0.16-0.49-0.71-1-1.16-0.54c-3.82,3.95-6.23,8.85-9,13.3
				C304.05,160.85,306.36,161.93,307.13,160.7L307.13,160.7z"/>
		</g>
		<g>
			<path class="st0" d="M323.24,154.66c1.19-3.5,3.82-6.41,6.87-9.02c0.58-0.49-0.15-1.26-0.89-0.93c-4.46,2.01-7.13,5.48-8.51,9.38
				C320.25,155.41,322.8,155.97,323.24,154.66L323.24,154.66z"/>
		</g>
		<g>
			<path class="st0" d="M336.41,153.38c1-1.37,1.98-2.73,2.98-4.1c0.9-1.24,1.96-2.49,2.46-3.87c0.25-0.7-0.86-1.19-1.5-0.7
				c-1.28,1.01-2.15,2.35-3.09,3.57c-1.03,1.35-2.06,2.7-3.09,4.04C333.31,153.47,335.57,154.53,336.41,153.38L336.41,153.38z"/>
		</g>
		<g>
			<path class="st0" d="M347.99,151.95c1.82-1.98,4.34-4.12,5.27-6.5c0.21-0.52-0.59-1.04-1.17-0.73c-2.66,1.42-4.59,4.09-6.49,6.1
				C344.54,151.97,346.94,153.09,347.99,151.95L347.99,151.95z"/>
		</g>
		<g>
			<path class="st0" d="M357.06,156.29c3.03-3.52,6.71-7.06,8.97-10.95c0.36-0.64-0.58-1.32-1.26-0.78
				c-3.86,3.07-6.8,7.14-9.94,10.68C353.87,156.33,356.11,157.39,357.06,156.29L357.06,156.29z"/>
		</g>
		<g>
			<path class="st0" d="M370.3,153.51c1.65-1.36,3.3-2.72,4.94-4.08c1.47-1.21,3.22-2.55,4.24-4.04c0.38-0.57-0.4-1.25-1.13-0.91
				c-1.81,0.87-3.4,2.31-4.86,3.54c-1.63,1.37-3.26,2.75-4.89,4.12C367.53,153.04,369.22,154.4,370.3,153.51L370.3,153.51z"/>
		</g>
		<g>
			<path class="st0" d="M381.94,154.89c2.09-3.59,5.36-6.59,9.05-9.19c0.79-0.55-0.22-1.49-1.08-1.12
				c-4.74,2.03-8.07,5.31-10.32,9.21C378.88,155.05,381.21,156.17,381.94,154.89L381.94,154.89z"/>
		</g>
		<g>
			<path class="st0" d="M393.16,155.11c4.03-4.06,8.02-8.06,11.49-12.44c0.49-0.62-0.63-1.3-1.27-0.78
				c-4.43,3.66-8.28,7.61-12.21,11.63C390.09,154.64,392.03,156.25,393.16,155.11L393.16,155.11z"/>
		</g>
		<g>
			<path class="st0" d="M402.31,157.93c2.19-2.17,4.38-4.34,6.58-6.51c1.84-1.82,4.26-3.74,5.32-5.93c0.32-0.64-0.76-1.25-1.44-0.89
				c-2.49,1.31-4.33,3.66-6.18,5.5c-2.09,2.08-4.18,4.15-6.26,6.23C399.2,157.45,401.17,159.06,402.31,157.93L402.31,157.93z"/>
		</g>
		<g>
			<path class="st0" d="M412.43,156.83c3.07-3.07,7.24-6.31,9.12-9.98c0.32-0.62-0.76-1.23-1.41-0.87c-3.97,2.2-6.93,6.06-9.94,9.05
				C408.92,156.29,411.16,158.1,412.43,156.83L412.43,156.83z"/>
		</g>
		<g>
			<path class="st0" d="M423.45,156.56c3.98-4.09,7.85-8.17,11.27-12.57c0.5-0.65-0.68-1.4-1.33-0.82
				c-4.31,3.85-8.13,7.96-11.93,12.16C420.62,156.25,422.56,157.47,423.45,156.56L423.45,156.56z"/>
		</g>
		<g>
			<path class="st0" d="M435.38,156.2c2.66-5.6,6.84-10.25,10.65-15.32c0.51-0.67-0.6-1.28-1.28-0.8
				c-5.69,3.99-9.3,9.97-11.94,15.55C432.2,156.92,434.78,157.48,435.38,156.2L435.38,156.2z"/>
		</g>
		<g>
			<path class="st0" d="M444.43,154.8c2.76-4.08,5.47-8.12,7.61-12.42c0.36-0.74-1.01-1.08-1.51-0.51
				c-3.25,3.75-5.92,7.72-8.6,11.76C441.06,154.95,443.54,156.12,444.43,154.8L444.43,154.8z"/>
		</g>
		<g>
			<path class="st0" d="M454.17,151.87c1.98-3.44,4.85-7.2,5.71-10.95c0.16-0.7-0.98-1.47-1.67-0.78c-3,2.98-4.69,7.05-6.66,10.51
				C450.75,152.05,453.35,153.29,454.17,151.87L454.17,151.87z"/>
		</g>
		<g>
			<path class="st0" d="M461.45,148.62c2.64-3.03,5.11-6.03,7.32-9.28c0.38-0.56-0.59-1.25-1.15-0.72c-3.03,2.88-5.67,5.87-8.27,9
				C458.45,148.69,460.56,149.65,461.45,148.62L461.45,148.62z"/>
		</g>
		<g>
			<path class="st0" d="M464.9,139.82c0.74,0.85,1.47,1.7,2.21,2.54c0.63,0.74,1.24,1.79,2.29,2.16c0.64,0.23,1.55-0.02,1.51-0.7
				c-0.07-0.97-0.95-1.72-1.62-2.49c-0.73-0.85-1.47-1.7-2.2-2.54C466.17,137.72,463.97,138.74,464.9,139.82L464.9,139.82z"/>
		</g>
		<g>
			<path class="st0" d="M468.68,134.53c0.2,2.35,1.98,5.25,5.28,5.41c0.99,0.05,1.28-0.92,0.74-1.44c-1.29-1.26-2.84-2.22-2.99-3.97
				C471.58,132.98,468.55,132.96,468.68,134.53L468.68,134.53z"/>
		</g>
		<g>
			<path class="st0" d="M468.39,129.26c1.13,1.53,2.27,3.06,3.4,4.59c0.95,1.28,1.6,2.74,3.38,3.33c0.81,0.27,1.48-0.39,1.55-0.95
				c0.18-1.45-1.38-2.79-2.27-3.98c-1.09-1.44-2.18-2.87-3.26-4.31C470.12,126.5,467.32,127.81,468.39,129.26L468.39,129.26z"/>
		</g>
		<g>
			<path class="st0" d="M472.54,121.46c1.01,1.64,2.02,3.28,3.03,4.92c0.91,1.49,1.64,3.18,3.14,4.34c0.79,0.6,2.51,0.23,2.36-0.78
				c-0.25-1.69-1.38-3.12-2.33-4.63c-1.09-1.74-2.19-3.48-3.28-5.22C474.47,118.52,471.58,119.9,472.54,121.46L472.54,121.46z"/>
		</g>
		<g>
			<path class="st0" d="M472.83,115.58c1.44,1.11,2.88,2.21,4.31,3.31c1.34,1.03,2.56,2.04,4.41,2.42c0.69,0.14,1.4-0.37,1.18-0.95
				c-0.56-1.46-1.83-2.39-3.17-3.41c-1.45-1.1-2.9-2.2-4.33-3.3C473.65,112.45,471.26,114.37,472.83,115.58L472.83,115.58z"/>
		</g>
		<g>
			<path class="st0" d="M476.56,106.48c1.4,1.14,2.8,2.27,4.19,3.41c1.24,1,2.51,2.38,4.24,2.79c0.99,0.23,1.96-0.55,1.67-1.34
				c-0.5-1.39-2.21-2.41-3.46-3.4c-1.42-1.13-2.83-2.25-4.25-3.38C477.4,103.33,475.03,105.24,476.56,106.48L476.56,106.48z"/>
		</g>
		<g>
			<path class="st0" d="M473.8,98.36c0.93,1.81,2.24,3.43,4.14,4.69c1.4,0.93,4.31,2.69,6.15,1.57c0.4-0.25,0.67-0.61,0.52-1.03
				c-0.48-1.33-2.57-1.77-3.84-2.56c-1.44-0.9-2.6-2.13-3.28-3.49C476.59,95.72,472.87,96.53,473.8,98.36L473.8,98.36z"/>
		</g>
		<g>
			<path class="st0" d="M472.9,90.18c1.7,0.8,3.39,1.6,5.09,2.4c1.6,0.75,3.17,1.63,5.03,1.86c0.99,0.12,2.23-0.72,1.48-1.55
				c-1.12-1.24-2.68-1.98-4.28-2.79c-1.76-0.9-3.54-1.8-5.3-2.7C472.74,86.29,470.67,89.13,472.9,90.18L472.9,90.18z"/>
		</g>
		<g>
			<path class="st0" d="M473.23,82.06c2.01,0.84,4.02,1.68,6.03,2.52c2,0.84,3.73,1.35,5.91,1.79c1.01,0.21,1.97-0.89,1.08-1.5
				c-1.7-1.16-3.15-2-5.15-2.82c-2.02-0.83-4.04-1.66-6.05-2.49C472.99,78.71,471.16,81.2,473.23,82.06L473.23,82.06z"/>
		</g>
		<g>
			<path class="st0" d="M472.58,74.56c1.12,0.88,2.25,1.76,3.38,2.64c1.05,0.82,2.12,1.96,3.69,1.97c0.76,0,1.41-0.52,1.41-1.13
				c-0.01-1.27-1.44-2.13-2.45-2.97c-1.09-0.9-2.19-1.81-3.28-2.71C473.58,70.92,470.8,73.16,472.58,74.56L472.58,74.56z"/>
		</g>
		<g>
			<path class="st0" d="M471.13,67.07c1.71,1.06,3.41,2.11,5.11,3.17c1.57,0.97,3.09,2.08,5.04,2.5c0.89,0.19,1.62-0.6,1.18-1.24
				c-0.99-1.42-2.7-2.33-4.26-3.31c-1.7-1.07-3.38-2.14-5.08-3.21C471.26,63.81,469.24,65.89,471.13,67.07L471.13,67.07z"/>
		</g>
		<g>
			<path class="st0" d="M470.68,60.85c1.78,1.14,3.57,2.28,5.35,3.43c0.79,0.51,1.57,1.03,2.38,1.52c0.88,0.55,1.53,0.56,2.45,0.93
				c1.18,0.47,2.21-0.64,1.38-1.43c-0.55-0.52-0.68-1.02-1.35-1.49c-0.85-0.6-1.8-1.13-2.69-1.7c-1.7-1.07-3.39-2.14-5.09-3.2
				C471.39,57.82,468.96,59.74,470.68,60.85L470.68,60.85z"/>
		</g>
		<g>
			<path class="st0" d="M473.05,54.85c2,0.97,4,1.96,6.02,2.9c1.54,0.72,3.17,1.72,4.94,1.09c0.31-0.11,0.54-0.45,0.51-0.71
				c-0.13-1.53-2.08-2.23-3.56-2.98c-1.98-0.99-4.02-1.93-6.02-2.9C472.87,51.25,470.99,53.85,473.05,54.85L473.05,54.85z"/>
		</g>
		<g>
			<path class="st0" d="M472.76,47.61c2.22,1.05,4.41,2.2,6.71,3.13c1.81,0.74,3.95,1.99,6.03,1.89c0.75-0.04,1.11-0.6,0.81-1.13
				c-0.86-1.52-3.42-2.59-5.08-3.51c-2.06-1.15-4.29-2.14-6.41-3.2C472.58,43.7,470.51,46.54,472.76,47.61L472.76,47.61z"/>
		</g>
		<g>
			<path class="st0" d="M474.92,39.62c2.02,1.07,4.05,2.14,6.07,3.21c1.84,0.97,3.77,2.07,5.91,2.55c1.19,0.27,1.77-0.86,1.11-1.53
				c-1.38-1.39-3.48-2.41-5.29-3.39c-2.01-1.09-4.04-2.17-6.05-3.26C474.82,36.21,473.05,38.63,474.92,39.62L474.92,39.62z"/>
		</g>
		<g>
			<path class="st0" d="M473.48,33.64c3.63,0.87,8.14,2.59,11.99,2.36c0.93-0.06,1.77-1.1,0.86-1.68
				c-3.17-2.03-8.04-2.64-11.84-3.61C472.16,30.11,471.15,33.07,473.48,33.64L473.48,33.64z"/>
		</g>
		<g>
			<path class="st0" d="M474.42,24.25c3.25,2.06,6.4,4.53,10.21,5.86c0.92,0.32,2.36-0.43,1.58-1.27c-2.45-2.69-6-4.59-9.21-6.66
				C475.19,21,472.58,23.08,474.42,24.25L474.42,24.25z"/>
		</g>
		<g>
			<path class="st0" d="M472.33,19.24c1.65,3.01,4.95,5.92,9.27,6c0.78,0.02,1.28-0.85,0.66-1.28c-2.64-1.87-5.42-3.47-6.93-6.13
				C474.41,16.19,471.45,17.61,472.33,19.24L472.33,19.24z"/>
		</g>
		<g>
			<path class="st0" d="M472.07,12.38c0.01,0.47,0.03,0.94,0.04,1.41c0.03,0.78,0.83,1.52,1.85,1.49c1.03-0.04,1.82-0.65,1.85-1.49
				c0.01-0.47,0.03-0.94,0.04-1.41c0.03-0.8-0.88-1.56-1.89-1.52C472.95,10.9,472.04,11.53,472.07,12.38L472.07,12.38z"/>
		</g>
		<g>
			<path class="st0" d="M36.96,154.37c4.24,2.82,7.17,6.45,10.89,9.63c0.46,0.39,1.38-0.01,1.15-0.54
				c-1.87-4.28-6.69-7.53-11.21-9.96C37.16,153.15,36.36,153.96,36.96,154.37L36.96,154.37z"/>
		</g>
		<g>
			<path class="st0" d="M47.79,152.85c0.47,6.04,4.2,13.36,11.39,16.14c0.67,0.26,1.34-0.38,0.81-0.84c-2.48-2.17-5.1-4.1-6.97-6.68
				c-1.93-2.66-3.19-5.56-3.62-8.62C49.28,152.04,47.73,152.01,47.79,152.85L47.79,152.85z"/>
		</g>
		<g>
			<path class="st0" d="M60.13,153.21c1.74,6.02,6.85,13.6,14.73,15.57c0.88,0.22,1.46-0.7,0.87-1.2c-2.62-2.22-5.71-3.98-8.03-6.45
				c-2.4-2.55-4.22-5.35-5.33-8.42C61.95,151.56,59.79,152.04,60.13,153.21L60.13,153.21z"/>
		</g>
		<g>
			<path class="st0" d="M76.09,156.34c1.68,3.01,3.89,5.79,6.61,8.27c2.69,2.45,5.56,4.34,9.34,5.52c0.69,0.22,1.23-0.61,0.72-0.99
				c-5.72-4.19-11.17-8.04-14.59-13.78C77.49,154.23,75.46,155.22,76.09,156.34L76.09,156.34z"/>
		</g>
		<g>
			<path class="st0" d="M89.29,156.69c3.69,3.56,7.14,7.56,11.62,10.49c0.73,0.48,1.87-0.11,1.36-0.85
				c-2.87-4.12-7.26-7.6-11.06-11.19C90.08,154.07,88.18,155.62,89.29,156.69L89.29,156.69z"/>
		</g>
		<g>
			<path class="st0" d="M102.23,159.26c0.95,2.61,2.55,4.99,4.81,7.03c1.91,1.72,4.94,3.91,7.98,3.93c0.76,0,1.08-0.74,0.6-1.16
				c-1.8-1.59-4.49-2.55-6.4-4.13c-2.12-1.76-3.62-3.88-4.54-6.21C104.19,157.47,101.77,157.99,102.23,159.26L102.23,159.26z"/>
		</g>
		<g>
			<path class="st0" d="M115.66,159.52c1.78,2.28,3.92,4.37,6.44,6.15c2.13,1.5,4.92,3.49,7.88,3.56c0.73,0.02,1.4-0.75,0.9-1.26
				c-1.66-1.74-4.45-2.71-6.5-4.14c-2.33-1.63-4.3-3.52-5.96-5.61C117.33,156.82,114.56,158.11,115.66,159.52L115.66,159.52z"/>
		</g>
		<g>
			<path class="st0" d="M128.57,157.78c1.99,4.47,6.31,10.19,12.55,11.32c0.97,0.17,1.55-0.7,0.93-1.29
				c-1.76-1.66-3.98-3.02-5.77-4.68c-1.93-1.79-3.4-3.87-4.41-6.09C131.13,155.4,127.82,156.1,128.57,157.78L128.57,157.78z"/>
		</g>
		<g>
			<path class="st0" d="M139.71,159.34c0.54,2.22,1.69,4.27,3.42,6.06c1.41,1.46,3.64,3.48,6.12,3.5c0.87,0,1.45-0.8,1-1.4
				c-1.07-1.45-3.29-2.3-4.61-3.66c-1.49-1.53-2.41-3.28-2.88-5.17C142.36,157.06,139.32,157.74,139.71,159.34L139.71,159.34z"/>
		</g>
		<g>
			<path class="st0" d="M149.43,159.33c0.57,2.12,2.06,3.98,4.2,5.31c2.22,1.38,4.47,1.96,7.2,1.37c1.01-0.22,0.97-1.39,0-1.62
				c-3.73-0.91-7.17-2.53-8.01-5.8C152.36,156.8,148.95,157.55,149.43,159.33L149.43,159.33z"/>
		</g>
		<g>
			<path class="st0" d="M159.47,159.23c0.66,2.37,2.44,4.38,4.94,5.74c2.12,1.15,5.75,2.16,8.14,1.02c0.9-0.43,0.67-1.48-0.28-1.73
				c-0.93-0.24-1.89-0.16-2.84-0.34c-1.1-0.21-2.19-0.57-3.14-1.06c-1.96-1-3.26-2.49-3.78-4.3
				C162.06,156.96,159.03,157.63,159.47,159.23L159.47,159.23z"/>
		</g>
		<g>
			<path class="st0" d="M170.28,156.27c0.52,2.64,1.82,5.11,3.82,7.26c1.68,1.79,4.22,3.96,7.22,4.02c0.71,0.01,1.22-0.67,0.83-1.16
				c-1.39-1.74-3.8-2.87-5.37-4.52c-1.77-1.86-2.83-4-3.32-6.3C173.1,153.88,169.95,154.6,170.28,156.27L170.28,156.27z"/>
		</g>
		<g>
			<path class="st0" d="M180.16,158.46c3.24,2.63,6.28,5.4,10.17,7.36c0.79,0.4,1.78-0.4,1.28-1.03c-2.45-3.12-5.91-5.56-9.18-8.16
				C180.96,155.47,178.71,157.28,180.16,158.46L180.16,158.46z"/>
		</g>
		<g>
			<path class="st0" d="M191.41,158.1c2.56,3.35,7.44,7.82,12.81,7.82c0.88,0,1.37-0.91,0.72-1.41c-1.66-1.29-3.89-2.13-5.69-3.32
				c-1.93-1.28-3.52-2.8-4.81-4.52C193.28,155.12,190.22,156.55,191.41,158.1L191.41,158.1z"/>
		</g>
		<g>
			<path class="st0" d="M201.23,159.85c1.72,1.45,3.43,2.9,5.16,4.34c1.4,1.17,2.98,2.92,4.97,3.36c0.77,0.17,1.44-0.41,1.26-1.01
				c-0.48-1.62-2.64-2.95-4.04-4.12c-1.73-1.44-3.48-2.86-5.21-4.29C202.01,157,199.88,158.71,201.23,159.85L201.23,159.85z"/>
		</g>
		<g>
			<path class="st0" d="M214.14,158.11c0.97,1.68,2.19,3.22,3.68,4.63c1.27,1.21,3.17,2.78,5.17,3.11c0.89,0.15,1.75-0.6,1.23-1.29
				c-0.98-1.29-2.76-2.27-4.03-3.4c-1.44-1.27-2.58-2.71-3.52-4.25C215.84,155.55,213.35,156.75,214.14,158.11L214.14,158.11z"/>
		</g>
		<g>
			<path class="st0" d="M221.92,155.4c1.41,1.42,2.83,2.85,4.24,4.27c1.2,1.21,2.32,2.77,4.22,3.27c0.61,0.16,1.42-0.28,1.35-0.83
				c-0.21-1.62-1.83-2.84-3.06-4.06c-1.5-1.49-2.99-2.99-4.49-4.48C222.89,152.28,220.65,154.12,221.92,155.4L221.92,155.4z"/>
		</g>
		<g>
			<path class="st0" d="M231.41,154.1c-0.82,2.13-0.32,4.44,1.25,6.26c1.18,1.37,4.06,3.58,6.27,2.51c0.48-0.23,0.7-0.78,0.38-1.18
				c-0.94-1.16-2.93-1.39-4.01-2.58c-1.16-1.28-1.49-2.85-0.89-4.36C235.03,153.23,232.01,152.56,231.41,154.1L231.41,154.1z"/>
		</g>
		<g>
			<path class="st0" d="M240.7,152.85c0.22,2.39,1.92,4.91,5.02,5.48c1.07,0.2,2.1-0.93,1.15-1.59c-1.5-1.03-2.91-2.23-3.05-3.89
				C243.69,151.25,240.55,151.25,240.7,152.85L240.7,152.85z"/>
		</g>
		<g>
			<path class="st0" d="M249.82,156.94c1.66,0,1.66-2.08,0-2.08C248.16,154.87,248.15,156.94,249.82,156.94L249.82,156.94z"/>
		</g>
	</g>
</g>
</svg>
