<?xml version="1.0" encoding="utf-8"?>
<!-- Generator: Adobe Illustrator 27.1.0, SVG Export Plug-In . SVG Version: 6.00 Build 0)  -->
<svg version="1.0" id="Capa_1" xmlns="http://www.w3.org/2000/svg" xmlns:xlink="http://www.w3.org/1999/xlink" x="0px" y="0px"
	 viewBox="0 0 500 216.21" style="enable-background:new 0 0 500 216.21;" xml:space="preserve">
<style type="text/css">
	.st0{fill:#F39F91;}
</style>
<g>
	<g>
		<g>
			<path class="st0" d="M464.03,6.92c-28.05,1.41-56.26,1.53-84.36,1.88c-28.12,0.34-56.25,0.54-84.37,0.6
				c-55.93,0.11-111.88-0.44-167.79-1.53c-31.59-0.61-63.2-1.3-94.76-2.41c-1.97-0.07-1.98-2.52,0-2.47
				C88.98,4.5,145.19,5.9,201.44,6.49c55.93,0.59,111.87,0.66,167.8,0.17c31.58-0.28,63.2-1.21,94.79-0.96
				C465.01,5.71,465,6.87,464.03,6.92L464.03,6.92z"/>
		</g>
		<g>
			<path class="st0" d="M462.64,11.98c3.74-2.48,8.5-2.13,12.61-0.33c4.99,2.2,7.61,6.39,9.07,10.65
				c1.78,5.21,2.45,10.73,3.31,16.08c0.96,5.9,1.73,11.83,2.31,17.76c2.31,23.7,1.36,47.68-2.43,71.25
				c-0.85,5.3-1.26,11.1-3.62,16.14c-1.98,4.22-5.79,7.24-10.95,8.98c-5.01,1.69-10.5,2.15-15.86,2.47
				c-7.45,0.45-14.91,0.81-22.37,1.12c-29.53,1.23-59.12,1.45-88.68,0.67c-33.6-0.89-67.14-3.07-100.48-6.51
				c-2.55-0.26-2.58-3.52,0-3.26c55.89,5.79,112.31,8.01,168.64,6.66c14-0.34,27.99-0.89,41.96-1.68
				c5.42-0.31,11.13-0.64,16.12-2.51c5.5-2.06,8.11-5.81,9.32-10.46c2.83-10.8,3.93-22.09,4.88-33.09
				c0.96-11.13,1.26-22.3,0.9-33.45c-0.4-12.63-1.58-25.26-3.58-37.79c-0.88-5.5-1.32-11.72-4.73-16.67
				c-3.1-4.52-9.76-7.7-16.16-5.69C462.66,12.42,462.44,12.12,462.64,11.98L462.64,11.98z"/>
		</g>
		<g>
			<path class="st0" d="M244.85,151.65c-0.77-1.28-0.54-2.55-1.81-3.61c0.81-0.38,1.63-0.76,2.44-1.14
				c2.91,10.48,6.39,20.85,9.35,31.32c2.95,10.44,5.29,21.14,4.29,31.89c-0.18,1.92-3.28,2.25-4.11,0.45
				c-4.85-10.51-12.6-20.34-20.47-29.52c-4.57-5.33-9.43-10.51-14.75-15.37c-4.4-4.03-9.13-8.01-14.58-11.15
				c-5.95-3.42-13.06-4.61-20.17-5.57c-10.25-1.38-20.71-1.63-31.09-1.66c-10.6-0.02-21.19,0.26-31.79,0.17
				c-8.11-0.07-16.16-0.69-24.26-0.91c-14.75-0.4-29.85-0.17-44.23-3.2c-6.45-1.36-12.86-3.49-17.89-7.09
				c-5.23-3.75-7.96-9-9.41-14.42c-3.7-13.83-1.11-28.5,0.74-42.38c0.68-5.12,1.6-10.32,1.46-15.47c-0.11-3.71-0.53-7.42-0.86-11.11
				c-0.88-9.82-1.84-19.78-0.73-29.61c0.68-6,2.33-17.17,11.67-18.67c2.14-0.34,3.86,0.4,5.88,0.71c1.6,0.25,0.92,2.22-0.67,1.97
				c-2.78-0.43-6.44,1.62-7.91,3.33c-2.48,2.91-3.37,6.7-3.94,10.13c-1.61,9.54-0.73,19.37,0.1,28.93
				c0.35,4.02,0.78,8.04,1.04,12.07c0.26,4.13-0.15,8.21-0.65,12.31c-1.68,13.92-4.66,28.08-2.81,42.09
				c0.72,5.49,2.29,11.65,6.94,15.92c4.31,3.95,10.42,6.2,16.59,7.64c13.94,3.25,28.78,3.07,43.16,3.43
				c7.69,0.19,15.34,0.81,23.03,0.94c10.29,0.17,20.58-0.11,30.86-0.17c10.38-0.06,20.81,0.06,31.11,1.13
				c7.57,0.79,15.99,1.69,22.77,4.74c5.33,2.4,9.93,5.84,14.15,9.35c5.24,4.37,10,9.11,14.5,13.98c8.8,9.52,16.91,19.72,23.12,30.5
				c1.15,1.99,2.22,4.01,3.13,6.08c-1.37,0.15-2.74,0.3-4.11,0.45c1.19-10.68-0.89-21.38-3.76-31.79
				c-2.82-10.24-6.77-20.38-8.51-30.8c-0.17-1.03,1.35-2.13,2.44-1.14c1.79,1.62,0.73,2.89,1.21,4.78
				C246.48,151.83,245.27,152.35,244.85,151.65L244.85,151.65z"/>
		</g>
		<g>
			<path class="st0" d="M480.13,15.89c-2.48-2.72-5.72-4.91-9.49-6.4c-1.84-0.73-3.81-1.3-5.8-1.7c-1.73-0.35-3.54-0.37-5.18-0.95
				c-0.87-0.31-0.53-1.35,0.25-1.54c3.81-0.93,9.11,1,12.37,2.51c3.86,1.8,7.09,4.29,9.54,7.28
				C482.52,15.95,480.86,16.69,480.13,15.89L480.13,15.89z"/>
		</g>
		<g>
			<path class="st0" d="M43.91,4.15c-7.47-0.85-14.54,1.94-19.65,6.18c-5.5,4.57-8.35,10.42-9.64,16.63
				c-1.38,6.69-1.03,13.54-0.87,20.29c0.16,7.42,0.29,14.84,0.39,22.26c0.21,14.43,0.14,28.87,0.67,43.3
				c0.42,11.61,2.29,24.43,14.08,32.38c5.69,3.83,12.81,6.04,19.89,7.58c8.13,1.76,16.55,2.84,24.9,3.63
				c17.97,1.71,36.22,1.78,54.2,0.17c27.64-2.48,61.37-9.27,83.31,9c9.42,7.84,14.67,18.1,21.31,27.44
				c3.3,4.65,6.99,9.3,11.85,13.02c3.14,2.41,8.89,4,13.16,2.85c1.62-0.44,2.89-1.4,2.77-2.87c-0.15-1.95,3.64-1.95,3.78,0
				c0.33,4.35-3.4,6.61-8.57,6.85c-5.42,0.25-11.06-1.53-14.87-4.6c-10.12-8.15-15.56-19.07-22.7-28.85
				c-3.58-4.89-7.66-9.58-13.02-13.33c-5.79-4.04-12.91-6.54-20.37-7.79c-15.53-2.61-31.8-0.38-47.3,1.29
				c-18.7,2.01-37.42,2.73-56.24,1.35c-9.15-0.67-18.29-1.72-27.26-3.27c-7.6-1.32-15.23-3.14-21.98-6.32
				c-6.6-3.11-12-7.58-15.38-13.12c-3.34-5.47-4.78-11.49-5.48-17.51c-0.8-6.85-0.61-13.76-0.67-20.63
				c-0.06-7.92-0.12-15.85-0.17-23.77c-0.06-7.92-0.13-15.85-0.13-23.77c0-7.31-0.35-14.7,0.67-21.98
				c1.63-11.66,8.56-24.43,24.15-27.46c3.16-0.61,6.38-0.63,9.56-0.11C45.28,3.14,44.85,4.26,43.91,4.15L43.91,4.15z"/>
		</g>
		<g>
			<path class="st0" d="M482.04,149.92c-1.31,4.48-6.28,8.4-10.58,11.26c-4.73,3.14-10.12,5.52-15.83,7.3
				c-14.07,4.38-29.47,4.52-44.34,4.09c-33.36-0.96-66.72-2.29-100.07-3.48c-9.48-0.34-18.95-0.67-28.43-1.01
				c-9.25-0.33-18.78-0.18-27.95-1.21c-2.07-0.23-1.43-2.73,0.47-2.81c7.99-0.32,16.17,0.41,24.16,0.7
				c8.21,0.3,16.43,0.59,24.64,0.89c16.11,0.58,32.22,1.17,48.33,1.75c16.27,0.59,32.54,1.2,48.8,1.82
				c15.26,0.57,30.98,1.5,45.99-1.33c6.88-1.3,13.48-3.46,19.38-6.6c2.87-1.52,5.54-3.26,7.92-5.25c2.44-2.05,4.27-4.45,6.64-6.52
				C481.55,149.2,482.15,149.53,482.04,149.92L482.04,149.92z"/>
		</g>
		<g>
			<path class="st0" d="M245.6,200.1c2.7,1.55,4.03,3.42,5.49,5.75c0.47,0.75-0.79,1.33-1.39,0.65c-2.08-2.33-3.39-5.16-4.88-7.76
				c-1.4-2.44-3.13-4.92-3.94-7.53c-0.25-0.8,1.03-1.17,1.59-0.54c2.07,2.33,3.34,5.19,4.82,7.78c1.4,2.44,3.08,4.93,3.88,7.55
				c-0.53,0.06-1.05,0.11-1.58,0.17c-0.17-2.3-2.11-4.42-4.15-5.91C245.33,200.19,245.48,200.03,245.6,200.1L245.6,200.1z"/>
		</g>
		<g>
			<path class="st0" d="M237.32,200.34c-1.53-8.02-5.12-15.52-9.29-22.86c-0.31-0.54,0.57-0.96,1-0.47
				c5.97,6.77,8.85,14.95,9.82,23.16C238.93,200.87,237.45,201.04,237.32,200.34L237.32,200.34z"/>
		</g>
		<g>
			<path class="st0" d="M227.92,188.03c-1.82-3.49-3.68-6.97-5.46-10.48c-1.72-3.39-4.04-7.01-4.71-10.64
				c-0.11-0.6,0.76-0.93,1.22-0.41c2.64,2.96,4.06,6.8,5.75,10.16c1.82,3.61,3.53,7.27,5.3,10.9
				C230.54,188.63,228.45,189.05,227.92,188.03L227.92,188.03z"/>
		</g>
		<g>
			<path class="st0" d="M212.33,171.38c-0.75-3.06-1.81-6.2-1.96-9.32c-0.03-0.67,1.15-0.74,1.4-0.15c1.23,2.9,1.66,6.07,2.32,9.08
				C214.29,171.91,212.56,172.31,212.33,171.38L212.33,171.38z"/>
		</g>
		<g>
			<path class="st0" d="M204.56,163.54c0.32-4.26-1.8-8.45-5.42-11.54c-0.87-0.74,0.4-1.68,1.35-1.09
				c4.83,3.04,7.01,7.74,6.34,12.63C206.68,164.69,204.47,164.74,204.56,163.54L204.56,163.54z"/>
		</g>
		<g>
			<path class="st0" d="M193.93,160.7c-2.75-4.46-6.23-9-7.85-13.84c-0.16-0.49,0.71-1,1.16-0.54c3.82,3.95,6.23,8.85,9,13.3
				C197.01,160.85,194.7,161.93,193.93,160.7L193.93,160.7z"/>
		</g>
		<g>
			<path class="st0" d="M177.81,154.66c-1.19-3.5-3.82-6.41-6.87-9.02c-0.58-0.49,0.15-1.26,0.89-0.93
				c4.46,2.01,7.13,5.48,8.51,9.38C180.81,155.41,178.26,155.97,177.81,154.66L177.81,154.66z"/>
		</g>
		<g>
			<path class="st0" d="M164.65,153.38c-1-1.37-1.98-2.73-2.98-4.1c-0.9-1.24-1.96-2.49-2.46-3.87c-0.25-0.7,0.86-1.19,1.5-0.7
				c1.28,1.01,2.15,2.35,3.09,3.57c1.03,1.35,2.06,2.7,3.09,4.04C167.75,153.47,165.49,154.53,164.65,153.38L164.65,153.38z"/>
		</g>
		<g>
			<path class="st0" d="M153.07,151.95c-1.82-1.98-4.34-4.12-5.27-6.5c-0.21-0.52,0.59-1.04,1.17-0.73c2.66,1.42,4.59,4.09,6.49,6.1
				C156.52,151.97,154.12,153.09,153.07,151.95L153.07,151.95z"/>
		</g>
		<g>
			<path class="st0" d="M144,156.29c-3.03-3.52-6.71-7.06-8.97-10.95c-0.36-0.64,0.58-1.32,1.26-0.78c3.86,3.07,6.8,7.14,9.94,10.68
				C147.19,156.33,144.95,157.39,144,156.29L144,156.29z"/>
		</g>
		<g>
			<path class="st0" d="M130.75,153.51c-1.65-1.36-3.3-2.72-4.94-4.08c-1.47-1.21-3.22-2.55-4.24-4.04
				c-0.38-0.57,0.4-1.25,1.13-0.91c1.81,0.87,3.4,2.31,4.86,3.54c1.63,1.37,3.26,2.75,4.89,4.12
				C133.53,153.04,131.84,154.4,130.75,153.51L130.75,153.51z"/>
		</g>
		<g>
			<path class="st0" d="M119.11,154.89c-2.09-3.59-5.36-6.59-9.05-9.19c-0.79-0.55,0.22-1.49,1.08-1.12
				c4.74,2.03,8.07,5.31,10.32,9.21C122.18,155.05,119.85,156.17,119.11,154.89L119.11,154.89z"/>
		</g>
		<g>
			<path class="st0" d="M107.9,155.11c-4.03-4.06-8.02-8.06-11.49-12.44c-0.49-0.62,0.63-1.3,1.27-0.78
				c4.43,3.66,8.28,7.61,12.21,11.63C110.97,154.64,109.03,156.25,107.9,155.11L107.9,155.11z"/>
		</g>
		<g>
			<path class="st0" d="M98.75,157.93c-2.19-2.17-4.38-4.34-6.58-6.51c-1.84-1.82-4.26-3.74-5.32-5.93
				c-0.32-0.64,0.76-1.25,1.44-0.89c2.49,1.31,4.33,3.66,6.18,5.5c2.09,2.08,4.18,4.15,6.26,6.23
				C101.86,157.45,99.89,159.06,98.75,157.93L98.75,157.93z"/>
		</g>
		<g>
			<path class="st0" d="M88.63,156.83c-3.07-3.07-7.24-6.31-9.12-9.98c-0.32-0.62,0.76-1.23,1.41-0.87c3.97,2.2,6.93,6.06,9.94,9.05
				C92.14,156.29,89.9,158.1,88.63,156.83L88.63,156.83z"/>
		</g>
		<g>
			<path class="st0" d="M77.61,156.56c-3.98-4.09-7.85-8.17-11.27-12.57c-0.5-0.65,0.68-1.4,1.33-0.82
				c4.31,3.85,8.13,7.96,11.93,12.16C80.43,156.25,78.5,157.47,77.61,156.56L77.61,156.56z"/>
		</g>
		<g>
			<path class="st0" d="M65.68,156.2c-2.66-5.6-6.84-10.25-10.65-15.32c-0.51-0.67,0.6-1.28,1.28-0.8
				c5.69,3.99,9.3,9.97,11.94,15.55C68.86,156.92,66.28,157.48,65.68,156.2L65.68,156.2z"/>
		</g>
		<g>
			<path class="st0" d="M56.63,154.8c-2.76-4.08-5.47-8.12-7.61-12.42c-0.36-0.74,1.01-1.08,1.51-0.51
				c3.25,3.75,5.92,7.72,8.6,11.76C60,154.95,57.52,156.12,56.63,154.8L56.63,154.8z"/>
		</g>
		<g>
			<path class="st0" d="M46.89,151.87c-1.98-3.44-4.85-7.2-5.71-10.95c-0.16-0.7,0.98-1.47,1.67-0.78c3,2.98,4.69,7.05,6.66,10.51
				C50.31,152.05,47.71,153.29,46.89,151.87L46.89,151.87z"/>
		</g>
		<g>
			<path class="st0" d="M39.61,148.62c-2.64-3.03-5.11-6.03-7.32-9.28c-0.38-0.56,0.59-1.25,1.15-0.72c3.03,2.88,5.67,5.87,8.27,9
				C42.61,148.69,40.5,149.65,39.61,148.62L39.61,148.62z"/>
		</g>
		<g>
			<path class="st0" d="M36.16,139.82c-0.74,0.85-1.47,1.7-2.21,2.54c-0.63,0.74-1.24,1.79-2.29,2.16c-0.64,0.23-1.55-0.02-1.51-0.7
				c0.07-0.97,0.95-1.72,1.62-2.49c0.73-0.85,1.47-1.7,2.2-2.54C34.89,137.72,37.09,138.74,36.16,139.82L36.16,139.82z"/>
		</g>
		<g>
			<path class="st0" d="M32.38,134.53c-0.2,2.35-1.98,5.25-5.28,5.41c-0.99,0.05-1.28-0.92-0.74-1.44c1.29-1.26,2.84-2.22,2.99-3.97
				C29.48,132.98,32.51,132.96,32.38,134.53L32.38,134.53z"/>
		</g>
		<g>
			<path class="st0" d="M32.67,129.26c-1.13,1.53-2.27,3.06-3.4,4.59c-0.95,1.28-1.6,2.74-3.38,3.33c-0.81,0.27-1.48-0.39-1.55-0.95
				c-0.18-1.45,1.38-2.79,2.27-3.98c1.09-1.44,2.18-2.87,3.26-4.31C30.94,126.5,33.74,127.81,32.67,129.26L32.67,129.26z"/>
		</g>
		<g>
			<path class="st0" d="M28.52,121.46c-1.01,1.64-2.02,3.28-3.03,4.92c-0.91,1.49-1.64,3.18-3.14,4.34
				c-0.79,0.6-2.51,0.23-2.36-0.78c0.25-1.69,1.38-3.12,2.33-4.63c1.09-1.74,2.19-3.48,3.28-5.22
				C26.59,118.52,29.48,119.9,28.52,121.46L28.52,121.46z"/>
		</g>
		<g>
			<path class="st0" d="M28.23,115.58c-1.44,1.11-2.88,2.21-4.31,3.31c-1.34,1.03-2.56,2.04-4.41,2.42
				c-0.69,0.14-1.4-0.37-1.18-0.95c0.56-1.46,1.83-2.39,3.17-3.41c1.45-1.1,2.9-2.2,4.33-3.3C27.41,112.45,29.8,114.37,28.23,115.58
				L28.23,115.58z"/>
		</g>
		<g>
			<path class="st0" d="M24.5,106.48c-1.4,1.14-2.8,2.27-4.19,3.41c-1.24,1-2.51,2.38-4.24,2.79c-0.99,0.23-1.96-0.55-1.67-1.34
				c0.5-1.39,2.21-2.41,3.46-3.4c1.42-1.13,2.83-2.25,4.25-3.38C23.66,103.33,26.03,105.24,24.5,106.48L24.5,106.48z"/>
		</g>
		<g>
			<path class="st0" d="M27.26,98.36c-0.93,1.81-2.24,3.43-4.14,4.69c-1.4,0.93-4.31,2.69-6.15,1.57c-0.4-0.25-0.67-0.61-0.52-1.03
				c0.48-1.33,2.57-1.77,3.84-2.56c1.44-0.9,2.6-2.13,3.28-3.49C24.47,95.72,28.19,96.53,27.26,98.36L27.26,98.36z"/>
		</g>
		<g>
			<path class="st0" d="M28.16,90.18c-1.7,0.8-3.39,1.6-5.09,2.4c-1.6,0.75-3.17,1.63-5.03,1.86c-0.99,0.12-2.23-0.72-1.48-1.55
				c1.12-1.24,2.68-1.98,4.28-2.79c1.76-0.9,3.54-1.8,5.3-2.7C28.32,86.29,30.39,89.13,28.16,90.18L28.16,90.18z"/>
		</g>
		<g>
			<path class="st0" d="M27.83,82.06c-2.01,0.84-4.02,1.68-6.03,2.52c-2,0.84-3.73,1.35-5.91,1.79c-1.01,0.21-1.97-0.89-1.08-1.5
				c1.7-1.16,3.15-2,5.15-2.82c2.02-0.83,4.04-1.66,6.05-2.49C28.07,78.71,29.89,81.2,27.83,82.06L27.83,82.06z"/>
		</g>
		<g>
			<path class="st0" d="M28.48,74.56c-1.12,0.88-2.25,1.76-3.38,2.64c-1.05,0.82-2.12,1.96-3.69,1.97c-0.76,0-1.41-0.52-1.41-1.13
				c0.01-1.27,1.44-2.13,2.45-2.97c1.09-0.9,2.19-1.81,3.28-2.71C27.48,70.92,30.26,73.16,28.48,74.56L28.48,74.56z"/>
		</g>
		<g>
			<path class="st0" d="M29.93,67.07c-1.71,1.06-3.41,2.11-5.11,3.17c-1.57,0.97-3.09,2.08-5.04,2.5c-0.89,0.19-1.62-0.6-1.18-1.24
				c0.99-1.42,2.7-2.33,4.26-3.31c1.7-1.07,3.38-2.14,5.08-3.21C29.8,63.81,31.82,65.89,29.93,67.07L29.93,67.07z"/>
		</g>
		<g>
			<path class="st0" d="M30.37,60.85c-1.78,1.14-3.57,2.28-5.35,3.43c-0.79,0.51-1.57,1.03-2.38,1.52
				c-0.88,0.55-1.53,0.56-2.45,0.93c-1.18,0.47-2.21-0.64-1.38-1.43c0.55-0.52,0.68-1.02,1.35-1.49c0.85-0.6,1.8-1.13,2.69-1.7
				c1.7-1.07,3.39-2.14,5.09-3.2C29.66,57.82,32.1,59.74,30.37,60.85L30.37,60.85z"/>
		</g>
		<g>
			<path class="st0" d="M28.01,54.85c-2,0.97-4,1.96-6.02,2.9c-1.54,0.72-3.17,1.72-4.94,1.09c-0.31-0.11-0.54-0.45-0.51-0.71
				c0.13-1.53,2.08-2.23,3.56-2.98c1.98-0.99,4.02-1.93,6.02-2.9C28.19,51.25,30.07,53.85,28.01,54.85L28.01,54.85z"/>
		</g>
		<g>
			<path class="st0" d="M28.3,47.61c-2.22,1.05-4.41,2.2-6.71,3.13c-1.81,0.74-3.95,1.99-6.03,1.89c-0.75-0.04-1.11-0.6-0.81-1.13
				c0.86-1.52,3.42-2.59,5.08-3.51c2.06-1.15,4.29-2.14,6.41-3.2C28.48,43.7,30.55,46.54,28.3,47.61L28.3,47.61z"/>
		</g>
		<g>
			<path class="st0" d="M26.14,39.62c-2.02,1.07-4.05,2.14-6.07,3.21c-1.84,0.97-3.77,2.07-5.91,2.55
				c-1.19,0.27-1.77-0.86-1.11-1.53c1.38-1.39,3.48-2.41,5.29-3.39c2.01-1.09,4.04-2.17,6.05-3.26
				C26.24,36.21,28.01,38.63,26.14,39.62L26.14,39.62z"/>
		</g>
		<g>
			<path class="st0" d="M27.58,33.64c-3.63,0.87-8.14,2.59-11.99,2.36c-0.93-0.06-1.77-1.1-0.86-1.68
				c3.17-2.03,8.04-2.64,11.84-3.61C28.9,30.11,29.91,33.07,27.58,33.64L27.58,33.64z"/>
		</g>
		<g>
			<path class="st0" d="M26.63,24.25c-3.25,2.06-6.4,4.53-10.21,5.86c-0.92,0.32-2.36-0.43-1.58-1.27c2.45-2.69,6-4.59,9.21-6.66
				C25.87,21,28.48,23.08,26.63,24.25L26.63,24.25z"/>
		</g>
		<g>
			<path class="st0" d="M28.72,19.24c-1.65,3.01-4.95,5.92-9.27,6c-0.78,0.02-1.28-0.85-0.66-1.28c2.64-1.87,5.42-3.47,6.93-6.13
				C26.65,16.19,29.61,17.61,28.72,19.24L28.72,19.24z"/>
		</g>
		<g>
			<path class="st0" d="M28.99,12.38c-0.01,0.47-0.03,0.94-0.04,1.41c-0.03,0.78-0.83,1.52-1.85,1.49
				c-1.03-0.04-1.82-0.65-1.85-1.49c-0.01-0.47-0.03-0.94-0.04-1.41c-0.03-0.8,0.88-1.56,1.89-1.52
				C28.11,10.9,29.02,11.53,28.99,12.38L28.99,12.38z"/>
		</g>
		<g>
			<path class="st0" d="M464.1,154.37c-4.24,2.82-7.17,6.45-10.89,9.63c-0.46,0.39-1.38-0.01-1.15-0.54
				c1.87-4.28,6.69-7.53,11.21-9.96C463.9,153.15,464.7,153.96,464.1,154.37L464.1,154.37z"/>
		</g>
		<g>
			<path class="st0" d="M453.27,152.85c-0.47,6.04-4.2,13.36-11.39,16.14c-0.67,0.26-1.34-0.38-0.81-0.84
				c2.48-2.17,5.1-4.1,6.97-6.68c1.93-2.66,3.19-5.56,3.62-8.62C451.78,152.04,453.33,152.01,453.27,152.85L453.27,152.85z"/>
		</g>
		<g>
			<path class="st0" d="M440.93,153.21c-1.74,6.02-6.85,13.6-14.73,15.57c-0.88,0.22-1.46-0.7-0.87-1.2
				c2.62-2.22,5.71-3.98,8.03-6.45c2.4-2.55,4.22-5.35,5.33-8.42C439.11,151.56,441.26,152.04,440.93,153.21L440.93,153.21z"/>
		</g>
		<g>
			<path class="st0" d="M424.97,156.34c-1.68,3.01-3.89,5.79-6.61,8.27c-2.69,2.45-5.56,4.34-9.34,5.52
				c-0.69,0.22-1.23-0.61-0.72-0.99c5.72-4.19,11.17-8.04,14.59-13.78C423.57,154.23,425.6,155.22,424.97,156.34L424.97,156.34z"/>
		</g>
		<g>
			<path class="st0" d="M411.77,156.69c-3.69,3.56-7.14,7.56-11.62,10.49c-0.73,0.48-1.87-0.11-1.36-0.85
				c2.87-4.12,7.26-7.6,11.06-11.19C410.98,154.07,412.88,155.62,411.77,156.69L411.77,156.69z"/>
		</g>
		<g>
			<path class="st0" d="M398.82,159.26c-0.95,2.61-2.55,4.99-4.81,7.03c-1.91,1.72-4.94,3.91-7.98,3.93c-0.76,0-1.08-0.74-0.6-1.16
				c1.8-1.59,4.49-2.55,6.4-4.13c2.12-1.76,3.62-3.88,4.54-6.21C396.87,157.47,399.28,157.99,398.82,159.26L398.82,159.26z"/>
		</g>
		<g>
			<path class="st0" d="M385.4,159.52c-1.78,2.28-3.92,4.37-6.44,6.15c-2.13,1.5-4.92,3.49-7.88,3.56c-0.73,0.02-1.4-0.75-0.9-1.26
				c1.66-1.74,4.45-2.71,6.5-4.14c2.33-1.63,4.3-3.52,5.96-5.61C383.73,156.82,386.5,158.11,385.4,159.52L385.4,159.52z"/>
		</g>
		<g>
			<path class="st0" d="M372.49,157.78c-1.99,4.47-6.31,10.19-12.55,11.32c-0.97,0.17-1.55-0.7-0.93-1.29
				c1.76-1.66,3.98-3.02,5.77-4.68c1.93-1.79,3.4-3.87,4.41-6.09C369.93,155.4,373.24,156.1,372.49,157.78L372.49,157.78z"/>
		</g>
		<g>
			<path class="st0" d="M361.35,159.34c-0.54,2.22-1.69,4.27-3.42,6.06c-1.41,1.46-3.64,3.48-6.12,3.5c-0.87,0-1.45-0.8-1-1.4
				c1.07-1.45,3.29-2.3,4.61-3.66c1.49-1.53,2.41-3.28,2.88-5.17C358.7,157.06,361.74,157.74,361.35,159.34L361.35,159.34z"/>
		</g>
		<g>
			<path class="st0" d="M351.63,159.33c-0.57,2.12-2.06,3.98-4.2,5.31c-2.22,1.38-4.47,1.96-7.2,1.37c-1.01-0.22-0.97-1.39,0-1.62
				c3.73-0.91,7.17-2.53,8.01-5.8C348.7,156.8,352.11,157.55,351.63,159.33L351.63,159.33z"/>
		</g>
		<g>
			<path class="st0" d="M341.58,159.23c-0.66,2.37-2.44,4.38-4.94,5.74c-2.12,1.15-5.75,2.16-8.14,1.02
				c-0.9-0.43-0.67-1.48,0.28-1.73c0.93-0.24,1.89-0.16,2.84-0.34c1.1-0.21,2.19-0.57,3.14-1.06c1.96-1,3.26-2.49,3.78-4.3
				C339,156.96,342.03,157.63,341.58,159.23L341.58,159.23z"/>
		</g>
		<g>
			<path class="st0" d="M330.78,156.27c-0.52,2.64-1.82,5.11-3.82,7.26c-1.68,1.79-4.22,3.96-7.22,4.02
				c-0.71,0.01-1.22-0.67-0.83-1.16c1.39-1.74,3.8-2.87,5.37-4.52c1.77-1.86,2.83-4,3.32-6.3
				C327.96,153.88,331.11,154.6,330.78,156.27L330.78,156.27z"/>
		</g>
		<g>
			<path class="st0" d="M320.9,158.46c-3.24,2.63-6.28,5.4-10.17,7.36c-0.79,0.4-1.78-0.4-1.28-1.03c2.45-3.12,5.91-5.56,9.18-8.16
				C320.1,155.47,322.35,157.28,320.9,158.46L320.9,158.46z"/>
		</g>
		<g>
			<path class="st0" d="M309.65,158.1c-2.56,3.35-7.44,7.82-12.81,7.82c-0.88,0-1.37-0.91-0.72-1.41c1.66-1.29,3.89-2.13,5.69-3.32
				c1.93-1.28,3.52-2.8,4.81-4.52C307.78,155.12,310.84,156.55,309.65,158.1L309.65,158.1z"/>
		</g>
		<g>
			<path class="st0" d="M299.83,159.85c-1.72,1.45-3.43,2.9-5.16,4.34c-1.4,1.17-2.98,2.92-4.97,3.36
				c-0.77,0.17-1.44-0.41-1.26-1.01c0.48-1.62,2.64-2.95,4.04-4.12c1.73-1.44,3.48-2.86,5.21-4.29
				C299.05,157,301.17,158.71,299.83,159.85L299.83,159.85z"/>
		</g>
		<g>
			<path class="st0" d="M286.92,158.11c-0.97,1.68-2.19,3.22-3.68,4.63c-1.27,1.21-3.17,2.78-5.17,3.11
				c-0.89,0.15-1.75-0.6-1.23-1.29c0.98-1.29,2.76-2.27,4.03-3.4c1.44-1.27,2.58-2.71,3.52-4.25
				C285.22,155.55,287.71,156.75,286.92,158.11L286.92,158.11z"/>
		</g>
		<g>
			<path class="st0" d="M279.14,155.4c-1.41,1.42-2.83,2.85-4.24,4.27c-1.2,1.21-2.32,2.77-4.22,3.27
				c-0.61,0.16-1.42-0.28-1.35-0.83c0.21-1.62,1.83-2.84,3.06-4.06c1.5-1.49,2.99-2.99,4.49-4.48
				C278.17,152.28,280.41,154.12,279.14,155.4L279.14,155.4z"/>
		</g>
		<g>
			<path class="st0" d="M269.65,154.1c0.82,2.13,0.32,4.44-1.25,6.26c-1.18,1.37-4.06,3.58-6.27,2.51c-0.48-0.23-0.7-0.78-0.38-1.18
				c0.94-1.16,2.93-1.39,4.01-2.58c1.16-1.28,1.49-2.85,0.89-4.36C266.03,153.23,269.05,152.56,269.65,154.1L269.65,154.1z"/>
		</g>
		<g>
			<path class="st0" d="M260.36,152.85c-0.22,2.39-1.92,4.91-5.02,5.48c-1.07,0.2-2.1-0.93-1.15-1.59c1.5-1.03,2.91-2.23,3.05-3.89
				C257.37,151.25,260.51,151.25,260.36,152.85L260.36,152.85z"/>
		</g>
		<g>
			<path class="st0" d="M251.24,156.94c-1.66,0-1.66-2.08,0-2.08C252.9,154.87,252.9,156.94,251.24,156.94L251.24,156.94z"/>
		</g>
	</g>
</g>
</svg>
