<?xml version="1.0" encoding="utf-8"?>
<!-- Generator: Adobe Illustrator 27.1.0, SVG Export Plug-In . SVG Version: 6.00 Build 0)  -->
<svg version="1.0" id="Capa_1" xmlns="http://www.w3.org/2000/svg" xmlns:xlink="http://www.w3.org/1999/xlink" x="0px" y="0px"
	 viewBox="0 0 200 200" style="enable-background:new 0 0 200 200;" xml:space="preserve">
<style type="text/css">
	.st0{fill:#F4D289;}
	.st1{fill:#EE5D44;}
	.st2{fill:#FBDEB4;}
	.st3{fill:#E6EBEF;}
	.st4{fill:#5B696B;}
	.st5{fill:#171E37;}
</style>
<g>
	<path class="st0" d="M130.88,60.59c1.43,1.16,3.6,1.76,1.05,4.3c-24.03,23.86-47.96,47.84-71.92,71.78
		c-0.21,0.21-0.51,0.32-0.77,0.48c-3.52-0.29-5.52,2.74-8.41,3.84c-4.72-4.14-9.15-8.55-13.28-13.28c4.02-3.98,9.63-5.79,13.59-9.87
		c-5.58,1.86-10.28,5.27-15.27,8.16c-0.27-2.53,1.59-3.86,3.06-5.42c4.19-4.46,8.8-8.48,13.06-12.89
		C66.04,93.13,80.36,78.83,94.9,64.77c4.22-4.08,8.01-8.81,13.42-11.58c0.68-0.28,1.36-0.56,2.04-0.84c3.29-0.24,5.2-3.43,8.37-3.91
		c3.5,3.49,7,6.99,10.49,10.48c-3.33,2.29-6.66,4.59-9.99,6.88C123.83,65.38,126.86,61.98,130.88,60.59z"/>
	<path class="st0" d="M139.25,68.97c4.65,4.12,9.04,8.5,13.15,13.15c-3.94,4.11-9.48,6.05-14.08,10.3c2.97-0.18,4.81-1.53,6.77-2.63
		c2.61-1.46,4.83-3.71,8.03-3.99c-2.28,3.94-5.99,6.58-9.09,9.76c-6.76,6.93-13.72,13.66-20.56,20.51
		c-15.15,15.16-30.34,30.27-45.34,45.58c-2.71,2.77-4.55,3.66-6.98,0.06c-1.18-1.74-3.52-2.63-3.8-5.07
		c5.02-2.73,9.76-5.84,13.77-10.04c-5.91,1.89-10.92,5.52-16.3,8.41c-0.97-0.97-1.94-1.94-2.91-2.91c1.82-1.23,3.63-2.45,5.7-3.85
		c-3.39-1.27-5.01,1.71-7.46,2.04c-0.94-0.92-1.89-1.84-2.84-2.76c2.5-1.62,5.01-3.23,7.51-4.84c3.01-1.95,6.02-3.9,9.03-5.85
		c-4.11,0.79-7.72,2.42-10.81,5.07c-0.61-0.07-1.23-0.13-1.84-0.2c4.4-5.53,10.16-9.74,14.89-14.84
		c13.26-14.28,27.35-27.71,40.97-41.61c4.18-4.27,8.26-8.65,13.02-12.31C133.74,73,136.04,69.93,139.25,68.97z"/>
	<path class="st1" d="M190.44,36.43c2.42,5.57,1.65,10.95-2.21,14.96c-2.36,2.45-4.81,4.82-7.21,7.22
		c-5.04,5.04-4.99,4.99-9.86,0.09c-10.65-10.71-21.31-21.42-32.07-32.02c-1.99-1.96-2.57-3.08-0.19-5.33
		c4.1-3.89,7.08-8.9,11.96-12.08c6.18-4.03,10.82-3.91,15.3,1.66c2.42,3.02,5.29,5.59,7.59,8.69c-1.67,1.55-4.31,2.03-5.47,4.98
		c3.17-0.75,5.68-1.58,7.44-3.91c2.74,2.44,5.49,4.89,8.23,7.33c-2.6,2.49-6.27,3.8-8.28,7.7c4.53-0.47,7.18-4.08,11-5
		c1.62,0.75,1.92,2.49,2.83,3.77c-2.97,1-4.65,3.69-7.08,5.48C185.59,39.91,188.02,38.18,190.44,36.43z"/>
	<path class="st2" d="M20.9,155.61c1.77-7.84,5.35-15.02,8.14-22.49c0.76-2.02,2.16-2.05,3.62-1.45c1.23,0.5,2.39,1.37,3.34,2.32
		c10.76,10.67,21.48,21.39,32.47,32.36c-4.04,2.65-7.78,5.27-12,7.09c0.39-0.83,0.79-1.65,1.54-3.23
		c-6.02,3.56-11.18,6.61-16.34,9.65c-2.96-10.32-10.52-16.15-19.8-20.3c1.36-3.15,5.8-3.58,6.87-7.69
		C25.92,153.48,23.79,155.39,20.9,155.61z"/>
	<path class="st3" d="M171.89,67.76c-3.81,3.76-7.54,7.47-11.31,11.15c-0.82,0.8-1.58,2.15-2.97,0.62
		c-8.36-9.14-17.8-17.21-26.04-26.5c-3.07-3.46-6.73-6.68-10.31-9.8c-1.92-1.67-2.07-3.17-0.07-4.96c2.19-1.96,4.42-3.95,6.22-6.25
		c2.94-3.76,5.51-3.31,8.6-0.18C147.87,43.83,159.84,55.72,171.89,67.76z"/>
	<path class="st4" d="M8.98,191.05c-1.24-0.73-0.93-1.73-0.55-2.81c2.68-7.54,4.94-15.23,9.09-22.2c1.15-1.93,2.22-2.07,4.06-1.68
		c5.37,1.14,14.33,12.07,14.58,17.68c0.05,1.08,0.07,1.9-0.96,2.21c-4.79,1.45-8.99,4.59-14.16,4.91c1.41-2.04,2.83-4.07,4.6-6.62
		C19.29,184.75,14.77,189.18,8.98,191.05z"/>
	<g>
		<g>
			<path class="st5" d="M193.55,30.52c-3-4.33-7.94-6.33-10.77-10.57c-3.73-5.59-9.01-9.42-14.3-13.34
				c-6.59-4.89-16.79-2.33-22.08,1.58c-5.96,4.41-10.75,10-15.63,15.3c-9.02,9.78-19.03,18.57-27.8,28.54
				c-1.33,1.52-2.73,2.72-4.19,3.68l-7.48,7.51c-1.12,1.54-2.34,2.71-3.7,3.71l-1.03,1.03c-2.12,2.57-4.51,4.84-7,7.02l-0.05,0.05
				l-0.01,0c-3.37,2.95-6.86,5.76-9.97,8.99c-1.87,1.86-3.75,3.72-5.62,5.58c-6.41,7.26-13.73,13.65-19.95,21.11
				c-4.64,5.57-10.12,10.68-14.1,16.55c-5.28,7.79-10.33,15.97-14.13,24.73c-0.28,0.66-0.79,1.22-1.19,1.82
				c-0.13,0.71,0.03,1.55-0.9,1.87c-4.82,11.47-9.02,23.13-11.41,35.38c0,0.61,0,1.21,0,1.82c1.89,3.2,4.43,3.65,8.03,2.8
				c23.62-5.59,45.51-15.16,65.43-28.93c6.88-4.76,12.81-10.9,19.09-16.51c3.11-2.78,6.02-5.77,9.02-8.67
				c1.56-1.54,3.12-3.08,4.68-4.62c4.35-4.96,9.02-9.6,13.94-13.98c0.87-1.59,2.28-2.62,3.7-3.66c1.19-1.85,2.52-3.56,3.95-5.19
				l0.01-0.05l0.19-0.19c1.04-1.16,2.13-2.27,3.31-3.3l12.7-12.69c0,0,0,0,0,0c0.13-0.13,0.26-0.26,0.39-0.39l7.4-7.39l0,0
				c12.97-12.93,25.97-25.82,38.76-38.92C199.5,44.41,199.01,38.4,193.55,30.52z M38.93,120.57c4.19-4.46,8.8-8.48,13.06-12.89
				C66.04,93.13,80.36,78.83,94.9,64.77c4.22-4.08,8.01-8.81,13.42-11.58c1.82-3.3,3.67-6.57,7.86-7.32
				c0.85,0.86,1.7,1.71,2.55,2.57c3.5,3.49,7,6.99,10.49,10.48c0.55,0.56,1.1,1.12,1.65,1.67c1.43,1.16,3.6,1.76,1.05,4.3
				c-24.03,23.86-47.96,47.84-71.92,71.77c-0.21,0.21-0.51,0.32-0.77,0.48c-1.32,1.42-2.75,2.76-3.92,4.29
				c-1.84,2.4-3.23,2.01-4.49-0.45c-4.72-4.14-9.15-8.55-13.28-13.28c-1.36,0.21-1.75-0.53-1.68-1.72
				C35.6,123.46,37.46,122.13,38.93,120.57z M35.2,184.25c-4.79,1.45-8.99,4.59-14.16,4.91c-2.62,2.5-6.24,2.5-9.39,3.66
				c-1.26,0.47-2.32-0.35-2.66-1.77c-1.24-0.73-0.93-1.73-0.55-2.81c2.68-7.54,4.94-15.23,9.09-22.2c1.15-1.93,2.22-2.07,4.06-1.68
				c5.37,1.14,14.33,12.07,14.58,17.68C36.2,183.13,36.22,183.94,35.2,184.25z M56.47,173.43c-3.77,2.66-7.83,4.78-11.98,6.76
				c-1.07,0.51-2.07,1.41-2.81-0.34c-2.96-10.32-10.52-16.15-19.81-20.3c-4.67-0.25-1.87-2.33-0.97-3.95
				c1.77-7.84,5.35-15.02,8.14-22.49c0.76-2.02,2.16-2.05,3.62-1.45c1.23,0.5,2.39,1.37,3.34,2.32
				c10.76,10.67,21.48,21.39,32.47,32.36C64.43,169,60.7,171.61,56.47,173.43z M153.12,85.8c-2.28,3.94-5.99,6.58-9.09,9.76
				c-6.76,6.93-13.72,13.66-20.56,20.51c-15.15,15.16-30.34,30.27-45.34,45.58c-2.71,2.77-4.55,3.65-6.98,0.06
				c-1.18-1.74-3.52-2.63-3.8-5.07c-1.2,0.01-2.63,0.37-2.53-1.63c-0.97-0.97-1.94-1.94-2.91-2.91c-0.58-0.6-1.17-1.21-1.75-1.81
				c-0.94-0.92-1.89-1.84-2.83-2.76c-2.21-1.77,0.12-2.53,0.92-3.37c0.86-0.91,2.46-1.01,2.96-2.44c4.4-5.53,10.16-9.74,14.89-14.85
				c13.26-14.28,27.35-27.71,40.97-41.61c4.18-4.27,8.26-8.65,13.02-12.31c1.05-2.61,3.9-3.31,5.64-5.25
				c1.25-1.39,2.69-0.17,3.52,1.28c4.65,4.12,9.04,8.5,13.15,13.15C154.31,83.02,154.67,84.22,153.12,85.8z M160.58,78.91
				c-0.82,0.8-1.58,2.15-2.97,0.62c-8.36-9.14-17.8-17.21-26.04-26.5c-3.07-3.46-6.73-6.68-10.31-9.8
				c-1.92-1.67-2.07-3.17-0.07-4.96c2.19-1.96,4.42-3.95,6.22-6.25c2.94-3.76,5.51-3.31,8.6-0.18
				c11.87,11.99,23.84,23.88,35.89,35.92C168.08,71.52,164.34,75.23,160.58,78.91z M188.23,51.39c-2.36,2.45-4.81,4.82-7.21,7.22
				c-5.04,5.04-4.99,4.99-9.86,0.09c-10.65-10.71-21.31-21.42-32.07-32.02c-1.99-1.96-2.57-3.08-0.19-5.33
				c4.1-3.89,7.08-8.9,11.96-12.08c6.18-4.03,10.82-3.91,15.3,1.66c2.42,3.02,5.29,5.59,7.59,8.69c0.78,0.14,1.7,0.02,1.96,1.08
				c2.74,2.44,5.49,4.89,8.23,7.33c0.91,0.9,1.82,1.8,2.73,2.71c1.62,0.75,1.92,2.49,2.83,3.77c0.91,0.34,0.96,1.12,0.95,1.92
				C192.86,42,192.1,47.39,188.23,51.39z"/>
		</g>
	</g>
</g>
</svg>
